<svg xmlns="http://www.w3.org/2000/svg" xmlns:xlink="http://www.w3.org/1999/xlink" width="260" zoomAndPan="magnify" viewBox="0 0 194.87999 195.000001" height="260" preserveAspectRatio="xMidYMid meet" version="1.0"><defs><filter x="0%" y="0%" width="100%" height="100%" id="id1"><feColorMatrix values="0 0 0 0 1 0 0 0 0 1 0 0 0 0 1 0 0 0 1 0" color-interpolation-filters="sRGB"/></filter><g/><clipPath id="id2"><path d="M 33 32 L 163.644531 32 L 163.644531 162 L 33 162 Z M 33 32 " clip-rule="nonzero"/></clipPath><clipPath id="id3"><path d="M 19.839844 19.402344 L 175.042969 19.402344 L 175.042969 174.605469 L 19.839844 174.605469 Z M 19.839844 19.402344 " clip-rule="nonzero"/></clipPath><mask id="id4"><g filter="url(#id1)"><rect x="-19.487999" width="233.855988" fill="#000000" y="-19.5" height="234.000001" fill-opacity="0.7373"/></g></mask><clipPath id="id5"><path d="M 4 4 L 155 4 L 155 156 L 4 156 Z M 4 4 " clip-rule="nonzero"/></clipPath><clipPath id="id6"><path d="M 0.714844 6.316406 L 150.519531 -0.898438 L 157.878906 151.890625 L 8.070312 159.105469 Z M 0.714844 6.316406 " clip-rule="nonzero"/></clipPath><clipPath id="id7"><path d="M 0.714844 6.316406 L 150.519531 -0.898438 L 157.878906 151.890625 L 8.070312 159.105469 Z M 0.714844 6.316406 " clip-rule="nonzero"/></clipPath><clipPath id="id8"><path d="M 7 7 L 152 7 L 152 153 L 7 153 Z M 7 7 " clip-rule="nonzero"/></clipPath><clipPath id="id9"><path d="M 0.714844 6.316406 L 150.519531 -0.898438 L 157.878906 151.890625 L 8.070312 159.105469 Z M 0.714844 6.316406 " clip-rule="nonzero"/></clipPath><clipPath id="id10"><path d="M 0.714844 6.316406 L 150.519531 -0.898438 L 157.878906 151.890625 L 8.070312 159.105469 Z M 0.714844 6.316406 " clip-rule="nonzero"/></clipPath><clipPath id="id11"><path d="M 10 10 L 149 10 L 149 150 L 10 150 Z M 10 10 " clip-rule="nonzero"/></clipPath><clipPath id="id12"><path d="M 0.714844 6.316406 L 150.519531 -0.898438 L 157.878906 151.890625 L 8.070312 159.105469 Z M 0.714844 6.316406 " clip-rule="nonzero"/></clipPath><clipPath id="id13"><path d="M 0.714844 6.316406 L 150.519531 -0.898438 L 157.878906 151.890625 L 8.070312 159.105469 Z M 0.714844 6.316406 " clip-rule="nonzero"/></clipPath><clipPath id="id14"><path d="M 13 13 L 146 13 L 146 148 L 13 148 Z M 13 13 " clip-rule="nonzero"/></clipPath><clipPath id="id15"><path d="M 0.714844 6.316406 L 150.519531 -0.898438 L 157.878906 151.890625 L 8.070312 159.105469 Z M 0.714844 6.316406 " clip-rule="nonzero"/></clipPath><clipPath id="id16"><path d="M 0.714844 6.316406 L 150.519531 -0.898438 L 157.878906 151.890625 L 8.070312 159.105469 Z M 0.714844 6.316406 " clip-rule="nonzero"/></clipPath><clipPath id="id17"><path d="M 15 15 L 144 15 L 144 145 L 15 145 Z M 15 15 " clip-rule="nonzero"/></clipPath><clipPath id="id18"><path d="M 0.714844 6.316406 L 150.519531 -0.898438 L 157.878906 151.890625 L 8.070312 159.105469 Z M 0.714844 6.316406 " clip-rule="nonzero"/></clipPath><clipPath id="id19"><path d="M 0.714844 6.316406 L 150.519531 -0.898438 L 157.878906 151.890625 L 8.070312 159.105469 Z M 0.714844 6.316406 " clip-rule="nonzero"/></clipPath><clipPath id="id20"><rect x="0" width="159" y="0" height="160"/></clipPath></defs><path fill="#e5ac5f" d="M 159.457031 95.394531 C 159.429688 108.5 155.046875 121.492188 147.292969 132.046875 C 139.902344 142.128906 129.507812 149.910156 117.738281 154.140625 C 105.515625 158.535156 91.972656 159.039062 79.472656 155.625 C 67.363281 152.292969 56.378906 145.320312 48.203125 135.800781 C 39.941406 126.167969 34.71875 114.125 33.398438 101.527344 C 31.992188 88.058594 35.503906 74.195312 42.726562 62.773438 C 49.382812 52.214844 59.1875 43.757812 70.621094 38.691406 C 82.535156 33.425781 96.019531 31.96875 108.804688 34.546875 C 121.109375 37.011719 132.542969 43.226562 141.335938 52.160156 C 150.1875 61.148438 156.226562 72.710938 158.472656 85.117188 C 159.121094 88.644531 159.457031 92.230469 159.457031 95.8125 C 159.457031 96.765625 159.484375 95.839844 159.457031 95.394531 C 159.429688 82.539062 155.777344 69.996094 148.472656 59.355469 C 141.113281 48.660156 130.464844 40.316406 118.269531 35.808594 C 105.628906 31.128906 91.523438 30.625 78.546875 34.40625 C 66.015625 38.046875 54.777344 45.605469 46.65625 55.828125 C 38.511719 66.078125 33.761719 78.734375 33.117188 91.78125 C 32.5 104.296875 35.109375 116.730469 41.402344 127.621094 C 47.839844 138.796875 57.726562 147.894531 69.441406 153.382812 C 81.691406 159.125 95.738281 160.75 109 158.03125 C 121.78125 155.429688 133.582031 148.792969 142.488281 139.273438 C 151.449219 129.722656 157.265625 117.429688 158.953125 104.464844 C 159.316406 101.582031 159.484375 98.699219 159.484375 95.785156 C 159.484375 95.335938 159.457031 94.414062 159.457031 95.394531 Z M 159.457031 95.394531 " fill-opacity="1" fill-rule="nonzero"/><path fill="#e5ac5f" d="M 113.605469 156.210938 C 101.050781 159.125 87.789062 158.226562 75.792969 153.496094 C 64.132812 148.875 53.960938 140.8125 46.882812 130.480469 C 39.324219 119.476562 35.140625 105.726562 35.953125 92.339844 C 36.742188 79.710938 41.460938 67.449219 49.269531 57.480469 C 65.3125 37.039062 93.210938 28.386719 118.046875 36.199219 C 129.875 39.921875 140.492188 47.121094 148.277344 56.75 C 156.5625 66.972656 161.453125 79.742188 162.183594 92.84375 C 163.644531 118.832031 146.730469 143.722656 122.765625 153.328125 C 119.789062 154.503906 116.726562 155.457031 113.605469 156.210938 C 113.496094 156.242188 113.691406 157.585938 113.605469 157.613281 C 126.585938 154.503906 138.359375 147.421875 147.066406 137.3125 C 155.582031 127.425781 160.863281 114.9375 162.042969 101.972656 C 163.167969 89.597656 160.945312 76.996094 155.214844 65.9375 C 149.203125 54.316406 139.511719 44.765625 127.824219 38.804688 C 116.078125 32.78125 102.539062 30.597656 89.472656 32.613281 C 76.214844 34.660156 63.765625 40.929688 54.273438 50.421875 C 45.085938 59.636719 38.875 71.648438 36.710938 84.472656 C 34.660156 96.625 36.039062 109.449219 40.84375 120.820312 C 45.925781 132.859375 54.832031 143.136719 66.015625 149.996094 C 77.253906 156.855469 90.570312 160.132812 103.71875 159.125 C 107.0625 158.871094 110.347656 158.339844 113.605469 157.585938 C 113.71875 157.585938 113.523438 156.242188 113.605469 156.210938 Z M 113.605469 156.210938 " fill-opacity="1" fill-rule="nonzero"/><path fill="#e5ac5f" d="M 127.65625 150.472656 C 115.882812 156.773438 102.144531 159.152344 88.941406 157.332031 C 76.355469 155.597656 64.359375 150.136719 54.890625 141.679688 C 45.054688 132.941406 38.0625 121.125 35.109375 108.332031 C 32.246094 95.953125 33.199219 82.792969 37.78125 70.949219 C 42.414062 58.964844 50.703125 48.492188 61.351562 41.238281 C 72.730469 33.484375 86.859375 29.925781 100.570312 30.851562 C 113.242188 31.691406 125.546875 36.3125 135.605469 44.039062 C 146.085938 52.105469 153.867188 63.417969 157.742188 76.015625 C 161.480469 88.167969 161.425781 101.328125 157.6875 113.453125 C 153.921875 125.664062 146.449219 136.640625 136.421875 144.59375 C 133.582031 146.859375 130.519531 148.902344 127.316406 150.640625 C 126.445312 151.117188 127.261719 150.695312 127.65625 150.472656 C 139.144531 144.253906 148.613281 134.929688 154.625 123.3125 C 160.664062 111.605469 162.996094 98.109375 161.144531 85.0625 C 159.234375 71.535156 152.882812 58.769531 143.246094 49.050781 C 133.949219 39.644531 121.726562 33.316406 108.691406 31.019531 C 95.597656 28.722656 81.945312 30.597656 69.949219 36.3125 C 58.457031 41.800781 48.566406 50.117188 41.855469 60.953125 C 34.941406 72.097656 31.570312 85.285156 32.328125 98.332031 C 33.117188 112 38.425781 125.269531 47.246094 135.769531 C 55.761719 145.878906 67.390625 153.1875 80.203125 156.519531 C 93.070312 159.878906 106.894531 159.125 119.308594 154.363281 C 122.0625 153.300781 124.734375 152.039062 127.34375 150.640625 C 127.710938 150.472656 128.554688 149.996094 127.65625 150.472656 Z M 127.65625 150.472656 " fill-opacity="1" fill-rule="nonzero"/><g clip-path="url(#id2)"><path fill="#e5ac5f" d="M 51.070312 139.019531 C 42.386719 129.246094 36.824219 117.039062 35.28125 104.074219 C 33.789062 91.472656 36.09375 78.535156 41.9375 67.253906 C 48.148438 55.210938 58.457031 44.851562 70.820312 39.140625 C 82.507812 33.734375 95.765625 32.027344 108.464844 34.15625 C 134.507812 38.550781 155.722656 59.1875 160.695312 85.0625 C 163.054688 97.382812 161.734375 110.316406 156.871094 121.882812 C 151.730469 134.175781 142.65625 144.675781 131.277344 151.675781 C 108.71875 165.507812 78.265625 162.457031 58.09375 145.796875 C 55.59375 143.695312 53.261719 141.425781 51.070312 139.019531 C 50.984375 138.9375 49.890625 139.777344 49.804688 139.691406 C 58.851562 149.742188 70.875 156.800781 84.136719 159.65625 C 97.085938 162.457031 110.824219 161.140625 123.019531 155.933594 C 134.621094 150.949219 144.847656 142.910156 151.984375 132.496094 C 159.484375 121.546875 163.390625 108.300781 163.082031 95.058594 C 162.773438 81.699219 158.222656 68.597656 150.101562 57.957031 C 141.871094 47.148438 130.265625 39.082031 117.175781 35.21875 C 104.53125 31.464844 90.738281 31.71875 78.234375 35.976562 C 66.351562 40.035156 55.507812 47.425781 47.640625 57.199219 C 39.324219 67.53125 34.410156 80.414062 33.679688 93.65625 C 32.949219 106.984375 36.460938 120.371094 43.679688 131.597656 C 45.507812 134.457031 47.585938 137.144531 49.832031 139.664062 C 49.917969 139.777344 51.011719 138.9375 51.070312 139.019531 Z M 51.070312 139.019531 " fill-opacity="1" fill-rule="nonzero"/></g><g clip-path="url(#id3)"><path fill="#001229" d="M 175.042969 97.003906 C 175.042969 98.273438 175.011719 99.542969 174.949219 100.808594 C 174.886719 102.078125 174.792969 103.34375 174.667969 104.609375 C 174.542969 105.871094 174.386719 107.132812 174.203125 108.390625 C 174.015625 109.644531 173.796875 110.894531 173.550781 112.140625 C 173.304688 113.386719 173.023438 114.625 172.714844 115.859375 C 172.40625 117.089844 172.070312 118.3125 171.699219 119.527344 C 171.332031 120.746094 170.933594 121.949219 170.503906 123.144531 C 170.078125 124.339844 169.621094 125.527344 169.136719 126.699219 C 168.648438 127.871094 168.132812 129.035156 167.589844 130.183594 C 167.046875 131.328125 166.476562 132.464844 165.878906 133.582031 C 165.28125 134.703125 164.65625 135.808594 164 136.898438 C 163.347656 137.988281 162.667969 139.058594 161.964844 140.117188 C 161.257812 141.171875 160.527344 142.210938 159.769531 143.230469 C 159.015625 144.25 158.234375 145.25 157.425781 146.234375 C 156.621094 147.214844 155.792969 148.175781 154.9375 149.117188 C 154.085938 150.058594 153.210938 150.976562 152.3125 151.875 C 151.414062 152.773438 150.496094 153.648438 149.554688 154.5 C 148.613281 155.355469 147.652344 156.183594 146.671875 156.988281 C 145.6875 157.796875 144.6875 158.578125 143.667969 159.332031 C 142.648438 160.089844 141.609375 160.820312 140.554688 161.527344 C 139.496094 162.230469 138.425781 162.910156 137.335938 163.5625 C 136.246094 164.21875 135.140625 164.84375 134.019531 165.441406 C 132.902344 166.039062 131.765625 166.609375 130.617188 167.152344 C 129.472656 167.695312 128.308594 168.210938 127.136719 168.699219 C 125.964844 169.183594 124.777344 169.640625 123.582031 170.066406 C 122.386719 170.496094 121.183594 170.894531 119.964844 171.261719 C 118.75 171.632812 117.527344 171.96875 116.296875 172.277344 C 115.0625 172.585938 113.824219 172.867188 112.578125 173.113281 C 111.332031 173.359375 110.082031 173.578125 108.828125 173.765625 C 107.570312 173.949219 106.308594 174.105469 105.046875 174.230469 C 103.78125 174.355469 102.515625 174.449219 101.246094 174.511719 C 99.980469 174.574219 98.710938 174.605469 97.441406 174.605469 C 96.171875 174.605469 94.902344 174.574219 93.632812 174.511719 C 92.363281 174.449219 91.097656 174.355469 89.832031 174.230469 C 88.570312 174.105469 87.308594 173.949219 86.054688 173.765625 C 84.796875 173.578125 83.546875 173.359375 82.300781 173.113281 C 81.054688 172.867188 79.816406 172.585938 78.585938 172.277344 C 77.351562 171.96875 76.128906 171.632812 74.914062 171.261719 C 73.699219 170.894531 72.492188 170.496094 71.296875 170.066406 C 70.101562 169.640625 68.917969 169.183594 67.742188 168.699219 C 66.570312 168.210938 65.410156 167.695312 64.261719 167.152344 C 63.113281 166.609375 61.980469 166.039062 60.859375 165.441406 C 59.738281 164.84375 58.632812 164.21875 57.542969 163.5625 C 56.457031 162.910156 55.382812 162.230469 54.328125 161.527344 C 53.269531 160.820312 52.234375 160.089844 51.210938 159.332031 C 50.191406 158.578125 49.191406 157.796875 48.210938 156.988281 C 47.226562 156.183594 46.265625 155.355469 45.324219 154.5 C 44.382812 153.648438 43.464844 152.773438 42.566406 151.875 C 41.667969 150.976562 40.792969 150.058594 39.941406 149.117188 C 39.085938 148.175781 38.257812 147.214844 37.453125 146.234375 C 36.648438 145.25 35.867188 144.25 35.109375 143.230469 C 34.351562 142.210938 33.621094 141.171875 32.917969 140.117188 C 32.210938 139.058594 31.53125 137.988281 30.878906 136.898438 C 30.226562 135.808594 29.601562 134.703125 29 133.582031 C 28.402344 132.464844 27.832031 131.328125 27.289062 130.183594 C 26.746094 129.035156 26.230469 127.871094 25.746094 126.699219 C 25.257812 125.527344 24.800781 124.339844 24.375 123.144531 C 23.945312 121.949219 23.546875 120.746094 23.179688 119.527344 C 22.8125 118.3125 22.472656 117.089844 22.164062 115.859375 C 21.855469 114.625 21.578125 113.386719 21.328125 112.140625 C 21.082031 110.894531 20.863281 109.644531 20.679688 108.390625 C 20.492188 107.132812 20.335938 105.871094 20.210938 104.609375 C 20.085938 103.34375 19.992188 102.078125 19.929688 100.808594 C 19.867188 99.542969 19.839844 98.273438 19.839844 97.003906 C 19.839844 95.734375 19.867188 94.464844 19.929688 93.195312 C 19.992188 91.925781 20.085938 90.660156 20.210938 89.394531 C 20.335938 88.132812 20.492188 86.871094 20.679688 85.617188 C 20.863281 84.359375 21.082031 83.109375 21.328125 81.863281 C 21.578125 80.617188 21.855469 79.378906 22.164062 78.148438 C 22.472656 76.914062 22.8125 75.691406 23.179688 74.476562 C 23.546875 73.261719 23.945312 72.054688 24.375 70.859375 C 24.800781 69.664062 25.257812 68.480469 25.746094 67.304688 C 26.230469 66.132812 26.746094 64.972656 27.289062 63.824219 C 27.832031 62.675781 28.402344 61.542969 29 60.421875 C 29.601562 59.300781 30.226562 58.195312 30.878906 57.105469 C 31.53125 56.019531 32.210938 54.945312 32.917969 53.890625 C 33.621094 52.832031 34.351562 51.796875 35.109375 50.773438 C 35.867188 49.753906 36.648438 48.753906 37.453125 47.773438 C 38.257812 46.789062 39.085938 45.828125 39.941406 44.886719 C 40.792969 43.945312 41.667969 43.027344 42.566406 42.128906 C 43.464844 41.230469 44.382812 40.355469 45.324219 39.503906 C 46.265625 38.648438 47.226562 37.820312 48.210938 37.015625 C 49.191406 36.210938 50.191406 35.429688 51.210938 34.671875 C 52.234375 33.914062 53.269531 33.183594 54.328125 32.480469 C 55.382812 31.773438 56.457031 31.09375 57.542969 30.441406 C 58.632812 29.789062 59.738281 29.164062 60.859375 28.5625 C 61.980469 27.964844 63.113281 27.394531 64.261719 26.851562 C 65.410156 26.308594 66.570312 25.792969 67.742188 25.308594 C 68.917969 24.820312 70.101562 24.363281 71.296875 23.9375 C 72.492188 23.507812 73.699219 23.109375 74.914062 22.742188 C 76.128906 22.375 77.351562 22.035156 78.585938 21.726562 C 79.816406 21.417969 81.054688 21.140625 82.300781 20.890625 C 83.546875 20.644531 84.796875 20.425781 86.054688 20.242188 C 87.308594 20.054688 88.570312 19.898438 89.832031 19.773438 C 91.097656 19.648438 92.363281 19.554688 93.632812 19.492188 C 94.902344 19.433594 96.171875 19.402344 97.441406 19.402344 C 98.710938 19.402344 99.980469 19.433594 101.246094 19.492188 C 102.515625 19.554688 103.78125 19.648438 105.046875 19.773438 C 106.308594 19.898438 107.570312 20.054688 108.828125 20.242188 C 110.082031 20.425781 111.332031 20.644531 112.578125 20.890625 C 113.824219 21.140625 115.0625 21.417969 116.296875 21.726562 C 117.527344 22.035156 118.75 22.375 119.964844 22.742188 C 121.183594 23.109375 122.386719 23.507812 123.582031 23.9375 C 124.777344 24.363281 125.964844 24.820312 127.136719 25.308594 C 128.308594 25.792969 129.472656 26.308594 130.621094 26.851562 C 131.765625 27.394531 132.902344 27.964844 134.019531 28.5625 C 135.140625 29.164062 136.246094 29.789062 137.335938 30.441406 C 138.425781 31.09375 139.496094 31.773438 140.554688 32.480469 C 141.609375 33.183594 142.648438 33.914062 143.667969 34.671875 C 144.6875 35.429688 145.6875 36.210938 146.671875 37.015625 C 147.652344 37.820312 148.613281 38.648438 149.554688 39.503906 C 150.496094 40.355469 151.414062 41.230469 152.3125 42.128906 C 153.210938 43.027344 154.085938 43.945312 154.9375 44.886719 C 155.792969 45.828125 156.621094 46.789062 157.425781 47.773438 C 158.234375 48.753906 159.015625 49.753906 159.769531 50.773438 C 160.527344 51.796875 161.257812 52.832031 161.964844 53.890625 C 162.667969 54.945312 163.347656 56.019531 164 57.105469 C 164.65625 58.195312 165.28125 59.300781 165.878906 60.421875 C 166.476562 61.542969 167.046875 62.675781 167.589844 63.824219 C 168.132812 64.972656 168.648438 66.132812 169.136719 67.304688 C 169.621094 68.480469 170.078125 69.664062 170.503906 70.859375 C 170.933594 72.054688 171.332031 73.261719 171.699219 74.476562 C 172.070312 75.691406 172.40625 76.914062 172.714844 78.148438 C 173.023438 79.378906 173.304688 80.617188 173.550781 81.863281 C 173.796875 83.109375 174.015625 84.359375 174.203125 85.617188 C 174.386719 86.871094 174.542969 88.132812 174.667969 89.394531 C 174.792969 90.660156 174.886719 91.925781 174.949219 93.195312 C 175.011719 94.464844 175.042969 95.734375 175.042969 97.003906 Z M 175.042969 97.003906 " fill-opacity="1" fill-rule="nonzero"/></g><g mask="url(#id4)"><g transform="matrix(1, 0, 0, 1, 18, 18)"><g clip-path="url(#id20)"><g clip-path="url(#id5)"><g clip-path="url(#id6)"><g clip-path="url(#id7)"><path fill="#e5ac5f" d="M 153.578125 75.78125 C 153.480469 75.085938 153.425781 72.601562 152.855469 68.671875 C 152.570312 66.710938 152.136719 64.371094 151.503906 61.785156 C 151.347656 61.15625 151.1875 60.460938 150.964844 59.773438 C 150.738281 59.082031 150.578125 58.386719 150.351562 57.632812 C 150.125 56.878906 149.835938 56.191406 149.605469 55.371094 C 149.378906 54.617188 149.085938 53.804688 148.796875 53.050781 C 148.503906 52.238281 148.148438 51.488281 147.851562 50.609375 C 147.496094 49.796875 147.136719 48.984375 146.714844 48.113281 C 146.355469 47.238281 145.933594 46.429688 145.449219 45.558594 C 145.023438 44.6875 144.601562 43.816406 144.050781 42.949219 C 142.101562 39.472656 139.707031 35.886719 136.867188 32.386719 C 133.964844 28.894531 130.621094 25.417969 126.710938 22.164062 C 122.808594 18.972656 118.40625 15.992188 113.511719 13.421875 C 108.625 10.917969 103.246094 8.75 97.519531 7.371094 C 91.796875 5.988281 85.714844 5.132812 79.488281 5.175781 C 77.902344 5.253906 76.375 5.199219 74.789062 5.339844 C 74.03125 5.375 73.207031 5.480469 72.445312 5.515625 C 71.6875 5.617188 70.867188 5.71875 70.046875 5.820312 C 68.464844 5.960938 66.894531 6.355469 65.3125 6.558594 C 64.496094 6.726562 63.742188 6.890625 62.921875 7.058594 C 62.105469 7.226562 61.347656 7.390625 60.535156 7.621094 C 59.71875 7.851562 58.964844 8.078125 58.152344 8.308594 C 57.335938 8.539062 56.585938 8.828125 55.835938 9.058594 C 54.269531 9.578125 52.710938 10.226562 51.214844 10.8125 C 48.164062 12.167969 45.117188 13.589844 42.214844 15.324219 C 30.59375 22.199219 20.546875 32.695312 14.097656 45.316406 C 13.285156 46.886719 12.535156 48.515625 11.851562 50.144531 C 11.230469 51.769531 10.484375 53.460938 9.996094 55.144531 C 9.375 56.832031 8.953125 58.574219 8.460938 60.253906 C 8.246094 61.09375 8.035156 62 7.820312 62.835938 C 7.714844 63.289062 7.609375 63.675781 7.503906 64.128906 L 7.25 65.480469 C 5.933594 72.496094 5.714844 79.777344 6.4375 86.882812 C 6.800781 90.4375 7.476562 93.976562 8.34375 97.445312 C 9.273438 100.90625 10.390625 104.296875 11.757812 107.609375 C 13.1875 110.921875 14.742188 114.101562 16.601562 117.136719 C 18.464844 120.171875 20.449219 123.074219 22.679688 125.835938 C 31.535156 136.761719 43.429688 144.863281 56.097656 149.164062 C 62.433594 151.34375 68.910156 152.5625 75.351562 152.957031 C 81.789062 153.347656 88.058594 152.855469 94.046875 151.738281 C 106.074219 149.371094 116.757812 144.203125 125.152344 137.609375 C 133.609375 131.082031 139.84375 123.253906 144.125 115.777344 C 146.296875 112.039062 147.960938 108.324219 149.253906 104.816406 C 150.546875 101.3125 151.46875 97.949219 152.148438 94.917969 C 153.507812 88.859375 153.78125 83.933594 153.8125 80.617188 C 153.835938 79.785156 153.859375 79.019531 153.832031 78.382812 C 153.800781 77.746094 153.773438 77.238281 153.816406 76.789062 C 153.777344 75.964844 153.820312 75.515625 153.820312 75.515625 C 154.507812 81.921875 154.441406 88.429688 153.480469 94.917969 C 152.523438 101.40625 150.734375 107.808594 148.105469 113.929688 C 143.855469 122.105469 138.175781 129.523438 131.414062 135.652344 C 124.589844 141.785156 116.6875 146.691406 108.203125 150.035156 C 103.960938 151.707031 99.511719 153.003906 95.039062 153.855469 C 90.566406 154.710938 86.011719 155.183594 81.433594 155.214844 C 72.351562 155.332031 63.1875 153.859375 54.644531 150.699219 C 37.5 144.511719 22.78125 131.890625 14.128906 115.914062 C 9.742188 107.964844 6.839844 99.175781 5.578125 90.179688 C 4.320312 81.183594 4.640625 72.046875 6.566406 63.152344 C 8.492188 54.324219 12.089844 45.859375 17.003906 38.289062 C 21.914062 30.71875 28.207031 24.101562 35.449219 18.710938 C 49.695312 8.332031 68.078125 3.238281 85.894531 4.867188 C 94.765625 5.652344 103.589844 8.035156 111.597656 11.921875 C 119.667969 15.804688 126.984375 21.191406 133.078125 27.597656 C 139.234375 34.058594 144.238281 41.601562 147.6875 49.851562 C 151.199219 58.101562 153.152344 66.9375 153.578125 75.78125 Z M 153.578125 75.78125 " fill-opacity="1" fill-rule="nonzero"/></g></g></g><g clip-path="url(#id8)"><g clip-path="url(#id9)"><g clip-path="url(#id10)"><path fill="#e5ac5f" d="M 150.789062 75.914062 C 150.691406 75.21875 150.640625 72.863281 150.078125 69.125 C 149.796875 67.226562 149.4375 65.011719 148.804688 62.492188 C 148.648438 61.859375 148.492188 61.230469 148.332031 60.535156 C 148.167969 59.84375 147.949219 59.214844 147.722656 58.460938 C 147.496094 57.769531 147.273438 57.078125 146.984375 56.328125 C 146.757812 55.574219 146.464844 54.824219 146.175781 54.070312 C 145.886719 53.320312 145.59375 52.566406 145.238281 51.757812 C 144.882812 51.007812 144.527344 50.195312 144.167969 49.382812 C 143.8125 48.574219 143.390625 47.761719 142.972656 46.953125 C 142.550781 46.144531 142.128906 45.273438 141.644531 44.46875 C 139.765625 41.113281 137.5 37.652344 134.734375 34.277344 C 131.964844 30.902344 128.6875 27.550781 124.976562 24.414062 C 121.207031 21.34375 117 18.484375 112.304688 16.03125 C 107.613281 13.644531 102.425781 11.535156 96.957031 10.203125 C 91.425781 8.875 85.601562 8.070312 79.566406 8.105469 C 67.554688 8.175781 54.859375 11.273438 43.679688 17.996094 C 32.488281 24.59375 22.804688 34.691406 16.589844 46.855469 C 15.769531 48.359375 15.082031 49.925781 14.394531 51.488281 C 13.773438 53.113281 13.085938 54.675781 12.59375 56.292969 C 12.035156 57.914062 11.542969 59.597656 11.113281 61.210938 C 10.898438 62.050781 10.75 62.886719 10.535156 63.726562 C 10.429688 64.179688 10.320312 64.566406 10.277344 65.015625 L 10.023438 66.304688 C 8.757812 73.0625 8.527344 80.085938 9.238281 86.941406 C 9.59375 90.367188 10.265625 93.78125 11.0625 97.121094 C 11.921875 100.460938 13.03125 103.722656 14.332031 106.914062 C 15.691406 110.101562 17.238281 113.152344 18.96875 116.066406 C 20.761719 118.976562 22.675781 121.753906 24.835938 124.390625 C 33.417969 134.949219 44.789062 142.691406 57 146.824219 C 63.078125 148.953125 69.367188 150.117188 75.488281 150.527344 C 81.675781 150.929688 87.753906 150.445312 93.484375 149.339844 C 105.074219 147.058594 115.324219 142.101562 123.40625 135.71875 C 131.492188 129.398438 137.554688 121.898438 141.65625 114.683594 C 143.707031 111.078125 145.316406 107.492188 146.613281 104.113281 C 147.851562 100.738281 148.777344 97.503906 149.398438 94.605469 C 150.707031 88.738281 150.984375 84.007812 151.023438 80.816406 C 151.046875 79.984375 151.078125 79.28125 151.050781 78.710938 C 151.019531 78.074219 150.992188 77.5625 151.039062 77.179688 C 151 76.351562 151.039062 75.902344 151.039062 75.902344 C 151.71875 82.058594 151.703125 88.371094 150.796875 94.601562 C 149.890625 100.832031 148.21875 107.035156 145.640625 112.898438 C 141.566406 120.75 136.0625 127.902344 129.546875 133.828125 C 122.964844 139.757812 115.375 144.460938 107.136719 147.664062 C 103.015625 149.265625 98.816406 150.488281 94.472656 151.332031 C 90.125 152.179688 85.757812 152.582031 81.375 152.664062 C 72.609375 152.769531 63.765625 151.34375 55.546875 148.296875 C 38.863281 142.402344 24.738281 130.265625 16.367188 114.851562 C 12.179688 107.144531 9.359375 98.734375 8.117188 90.121094 C 6.9375 81.4375 7.210938 72.625 9.089844 64.117188 C 10.902344 55.546875 14.390625 47.40625 19.125 40.164062 C 23.859375 32.855469 29.910156 26.503906 36.847656 21.324219 C 50.78125 11.023438 68.535156 6.085938 85.648438 7.6875 C 94.203125 8.421875 102.636719 10.695312 110.386719 14.464844 C 118.132812 18.238281 125.179688 23.382812 131.074219 29.605469 C 136.96875 35.828125 141.832031 43.054688 145.136719 50.996094 C 148.503906 58.871094 150.375 67.390625 150.789062 75.914062 Z M 150.789062 75.914062 " fill-opacity="1" fill-rule="nonzero"/></g></g></g><g clip-path="url(#id11)"><g clip-path="url(#id12)"><g clip-path="url(#id13)"><path fill="#e5ac5f" d="M 147.996094 76.050781 C 147.902344 75.417969 147.855469 73.125 147.363281 69.511719 C 147.085938 67.675781 146.730469 65.585938 146.101562 63.128906 C 145.945312 62.5 145.789062 61.871094 145.628906 61.238281 C 145.472656 60.609375 145.25 59.917969 145.089844 59.289062 C 144.867188 58.597656 144.644531 57.90625 144.417969 57.214844 C 144.195312 56.527344 143.96875 55.773438 143.679688 55.082031 C 143.390625 54.332031 143.101562 53.644531 142.808594 52.828125 C 142.457031 52.082031 142.164062 51.332031 141.808594 50.519531 C 141.453125 49.707031 141.035156 48.960938 140.675781 48.148438 C 140.257812 47.339844 139.898438 46.527344 139.417969 45.785156 C 137.609375 42.558594 135.414062 39.21875 132.78125 35.964844 C 130.144531 32.710938 127 29.484375 123.425781 26.53125 C 119.851562 23.578125 115.710938 20.78125 111.210938 18.445312 C 106.714844 16.109375 101.722656 14.117188 96.449219 12.84375 C 91.175781 11.566406 85.542969 10.816406 79.761719 10.839844 C 68.253906 10.882812 56.066406 13.894531 45.316406 20.34375 C 34.375 26.800781 25.050781 36.433594 19.066406 48.136719 C 18.308594 49.578125 17.617188 51.078125 16.992188 52.574219 C 16.367188 54.136719 15.738281 55.632812 15.242188 57.1875 C 14.679688 58.746094 14.25 60.359375 13.816406 61.910156 C 13.601562 62.6875 13.449219 63.523438 13.234375 64.300781 C 13.125 64.6875 13.015625 65.074219 12.972656 65.523438 L 12.78125 66.808594 C 11.570312 73.308594 11.320312 80.015625 12.019531 86.617188 C 12.367188 89.914062 12.972656 93.203125 13.761719 96.417969 C 14.617188 99.628906 15.65625 102.765625 16.886719 105.832031 C 18.175781 108.894531 19.652344 111.824219 21.3125 114.613281 C 23.035156 117.398438 24.882812 120.117188 26.910156 122.632812 C 35.15625 132.761719 46.128906 140.203125 57.828125 144.167969 C 63.644531 146.183594 69.675781 147.296875 75.605469 147.714844 C 81.535156 148.066406 87.363281 147.65625 92.90625 146.5625 C 103.988281 144.371094 113.867188 139.558594 121.648438 133.507812 C 129.429688 127.457031 135.183594 120.226562 139.171875 113.273438 C 141.167969 109.796875 142.714844 106.34375 143.894531 103.097656 C 145.074219 99.851562 145.941406 96.75 146.570312 93.976562 C 147.828125 88.367188 148.054688 83.828125 148.097656 80.765625 C 148.125 80 148.152344 79.296875 148.125 78.722656 C 148.097656 78.148438 148.074219 77.640625 148.117188 77.257812 C 148.082031 76.492188 148.058594 76.046875 148.058594 76.046875 C 148.726562 81.945312 148.699219 88.007812 147.847656 94.042969 C 146.988281 100.015625 145.371094 106.023438 142.90625 111.628906 C 139.011719 119.214844 133.6875 126.101562 127.414062 131.761719 C 121.078125 137.488281 113.792969 141.984375 105.867188 145.109375 C 101.9375 146.636719 97.863281 147.855469 93.707031 148.691406 C 89.554688 149.53125 85.3125 149.925781 81.117188 149.9375 C 72.667969 150.023438 64.210938 148.644531 56.25 145.710938 C 40.398438 139.96875 26.742188 128.320312 18.714844 113.460938 C 14.671875 106.066406 11.992188 97.96875 10.765625 89.671875 C 9.605469 81.375 9.890625 72.816406 11.722656 64.625 C 13.488281 56.441406 16.863281 48.625 21.421875 41.644531 C 25.980469 34.667969 31.789062 28.519531 38.476562 23.542969 C 51.859375 13.648438 68.859375 8.875 85.398438 10.441406 C 93.636719 11.191406 101.75 13.351562 109.171875 17.011719 C 116.59375 20.609375 123.378906 25.574219 129.070312 31.550781 C 134.761719 37.527344 139.359375 44.515625 142.582031 52.074219 C 145.8125 59.699219 147.601562 67.84375 147.996094 76.050781 Z M 147.996094 76.050781 " fill-opacity="1" fill-rule="nonzero"/></g></g></g><g clip-path="url(#id14)"><g clip-path="url(#id15)"><g clip-path="url(#id16)"><path fill="#e5ac5f" d="M 145.207031 76.183594 C 145.113281 75.550781 145.070312 73.386719 144.585938 69.902344 C 144.3125 68.191406 143.957031 66.105469 143.398438 63.769531 C 143.308594 63.203125 143.089844 62.574219 142.933594 62.007812 C 142.777344 61.378906 142.554688 60.75 142.398438 60.121094 C 142.175781 59.492188 141.953125 58.800781 141.730469 58.175781 C 141.507812 57.484375 141.285156 56.792969 140.996094 56.105469 C 140.710938 55.417969 140.417969 54.667969 140.132812 53.980469 C 139.84375 53.292969 139.492188 52.542969 139.136719 51.796875 C 138.847656 51.042969 138.429688 50.296875 138.011719 49.554688 C 137.65625 48.804688 137.238281 47.996094 136.757812 47.253906 C 135.019531 44.148438 132.957031 40.996094 130.390625 37.867188 C 127.886719 34.671875 124.878906 31.625 121.433594 28.730469 C 117.992188 25.898438 114.046875 23.21875 109.746094 21.003906 C 105.378906 18.789062 100.644531 16.847656 95.566406 15.625 C 90.484375 14.40625 85.109375 13.644531 79.582031 13.71875 C 68.519531 13.738281 56.835938 16.664062 46.519531 22.835938 C 36.195312 28.945312 27.296875 38.238281 21.605469 49.417969 C 20.847656 50.792969 20.28125 52.226562 19.585938 53.660156 C 19.023438 55.15625 18.390625 56.589844 17.890625 58.078125 C 17.328125 59.574219 16.957031 61.121094 16.519531 62.609375 C 16.304688 63.386719 16.148438 64.160156 15.996094 64.929688 C 15.886719 65.320312 15.78125 65.707031 15.734375 66.09375 L 15.535156 67.25 C 14.375 73.492188 14.175781 79.941406 14.800781 86.289062 C 16.109375 98.984375 21.210938 111.171875 29.175781 120.804688 C 37.082031 130.5 47.597656 137.644531 58.78125 141.507812 C 64.40625 143.46875 70.175781 144.53125 75.851562 144.894531 C 81.527344 145.261719 87.164062 144.796875 92.457031 143.839844 C 103.101562 141.734375 112.542969 137.132812 120.015625 131.289062 C 127.488281 125.445312 133.007812 118.546875 136.820312 111.921875 C 138.691406 108.578125 140.1875 105.316406 141.371094 102.199219 C 142.496094 99.082031 143.367188 96.109375 143.941406 93.464844 C 145.140625 88.050781 145.378906 83.703125 145.425781 80.765625 C 145.453125 80 145.484375 79.359375 145.457031 78.789062 C 145.429688 78.214844 145.410156 77.769531 145.453125 77.382812 C 145.417969 76.621094 145.398438 76.238281 145.398438 76.238281 C 146.050781 81.882812 146.082031 87.75 145.273438 93.464844 C 144.472656 99.242188 142.964844 104.929688 140.625 110.398438 C 136.839844 117.660156 131.820312 124.277344 125.726562 129.738281 C 119.632812 135.199219 112.59375 139.554688 105.046875 142.535156 C 101.238281 143.992188 97.351562 145.136719 93.324219 145.96875 C 89.355469 146.734375 85.242188 147.121094 81.238281 147.1875 C 73.105469 147.261719 64.96875 145.929688 57.398438 143.167969 C 42.191406 137.652344 29.066406 126.421875 21.386719 112.1875 C 17.484375 105.101562 14.949219 97.316406 13.800781 89.335938 C 12.71875 81.351562 13.023438 73.175781 14.679688 65.3125 C 16.398438 57.449219 19.597656 49.960938 23.980469 43.246094 C 28.359375 36.527344 33.925781 30.648438 40.371094 25.875 C 53.199219 16.390625 69.507812 11.84375 85.347656 13.3125 C 93.261719 14.015625 101.054688 16.128906 108.152344 19.613281 C 115.25 23.097656 121.773438 27.820312 127.195312 33.554688 C 132.621094 39.289062 137.074219 45.964844 140.160156 53.277344 C 143.113281 60.46875 144.824219 68.292969 145.207031 76.183594 Z M 145.207031 76.183594 " fill-opacity="1" fill-rule="nonzero"/></g></g></g><g clip-path="url(#id17)"><g clip-path="url(#id18)"><g clip-path="url(#id19)"><path fill="#e5ac5f" d="M 142.414062 76.320312 C 142.320312 75.6875 142.285156 73.644531 141.808594 70.289062 C 141.539062 68.644531 141.1875 66.683594 140.632812 64.414062 C 140.542969 63.84375 140.324219 63.28125 140.171875 62.714844 C 140.015625 62.148438 139.859375 61.519531 139.636719 60.890625 C 139.480469 60.261719 139.195312 59.636719 139.039062 59.007812 C 138.816406 58.378906 138.59375 57.6875 138.308594 57.066406 C 138.023438 56.375 137.796875 55.6875 137.511719 55 C 137.222656 54.3125 136.871094 53.625 136.582031 52.875 C 136.292969 52.125 135.878906 51.441406 135.523438 50.695312 C 135.167969 49.945312 134.816406 49.195312 134.339844 48.519531 C 132.667969 45.539062 130.679688 42.507812 128.246094 39.5 C 125.8125 36.492188 122.9375 33.570312 119.625 30.796875 C 116.316406 28.085938 112.570312 25.523438 108.402344 23.425781 C 104.226562 21.269531 99.695312 19.507812 94.867188 18.273438 C 90.042969 17.105469 84.859375 16.398438 79.585938 16.460938 C 68.972656 16.523438 57.851562 19.230469 47.964844 25.1875 C 38.074219 31.023438 29.539062 39.917969 24.082031 50.636719 C 23.382812 51.949219 22.8125 53.378906 22.179688 54.75 C 21.613281 56.179688 21.042969 57.546875 20.605469 58.96875 C 20.101562 60.398438 19.726562 61.882812 19.289062 63.304688 C 19.066406 64.019531 18.914062 64.789062 18.757812 65.5 C 18.648438 65.886719 18.601562 66.210938 18.492188 66.597656 L 18.289062 67.691406 C 17.179688 73.675781 16.96875 79.808594 17.578125 85.902344 C 18.796875 98.023438 23.746094 109.710938 31.3125 118.976562 C 38.882812 128.308594 48.9375 135.15625 59.667969 138.785156 C 65.03125 140.632812 70.546875 141.644531 75.96875 142.019531 C 81.386719 142.332031 86.773438 141.945312 91.875 141 C 102.078125 138.976562 111.148438 134.585938 118.253906 129.015625 C 125.421875 123.4375 130.695312 116.808594 134.332031 110.445312 C 136.148438 107.234375 137.585938 104.101562 138.714844 101.113281 C 139.777344 98.128906 140.59375 95.285156 141.171875 92.707031 C 142.320312 87.546875 142.566406 83.390625 142.621094 80.582031 C 142.648438 79.878906 142.683594 79.238281 142.660156 78.730469 C 142.632812 78.222656 142.609375 77.710938 142.65625 77.390625 C 142.625 76.691406 142.605469 76.308594 142.605469 76.308594 C 143.25 81.761719 143.261719 87.3125 142.511719 92.832031 C 141.761719 98.355469 140.308594 103.84375 138.078125 109.054688 C 134.476562 116.050781 129.628906 122.34375 123.777344 127.601562 C 117.929688 132.855469 111.199219 137.007812 103.960938 139.84375 C 100.34375 141.292969 96.582031 142.367188 92.742188 143.125 C 88.898438 143.882812 85.039062 144.261719 81.097656 144.261719 C 73.285156 144.382812 65.53125 143.097656 58.21875 140.386719 C 43.660156 135.09375 31.0625 124.347656 23.667969 110.671875 C 19.96875 103.898438 17.511719 96.429688 16.382812 88.765625 C 15.3125 81.101562 15.632812 73.238281 17.246094 65.765625 C 18.851562 58.226562 21.941406 51.0625 26.144531 44.609375 C 30.34375 38.15625 35.667969 32.542969 41.871094 27.96875 C 54.210938 18.894531 69.828125 14.507812 84.964844 15.945312 C 92.5625 16.601562 99.96875 18.605469 106.804688 21.972656 C 113.644531 25.40625 119.839844 29.957031 125.0625 35.445312 C 130.285156 40.933594 134.535156 47.359375 137.476562 54.296875 C 140.421875 61.300781 142.050781 68.746094 142.414062 76.320312 Z M 142.414062 76.320312 " fill-opacity="1" fill-rule="nonzero"/></g></g></g></g></g></g><g fill="#e5ac5f" fill-opacity="1"><g transform="translate(56.470464, 102.936062)"><g><path d="M 74.046875 -61.84375 C 77.285156 -62.257812 80.070312 -61.960938 82.40625 -60.953125 C 84.738281 -59.941406 86.410156 -58.296875 87.421875 -56.015625 C 88.429688 -53.734375 88.597656 -50.878906 87.921875 -47.453125 C 87.554688 -45.609375 87.050781 -43.820312 86.40625 -42.09375 C 86.28125 -41.695312 86.09375 -41.34375 85.84375 -41.03125 C 85.601562 -40.71875 85.257812 -40.507812 84.8125 -40.40625 C 84.664062 -40.363281 84.515625 -40.347656 84.359375 -40.359375 C 84.203125 -40.367188 84.070312 -40.453125 83.96875 -40.609375 C 83.90625 -40.710938 83.867188 -40.828125 83.859375 -40.953125 C 83.847656 -41.085938 83.851562 -41.207031 83.875 -41.3125 C 84.632812 -43.28125 85.195312 -45.289062 85.5625 -47.34375 C 86.101562 -50.132812 86.003906 -52.554688 85.265625 -54.609375 C 84.523438 -56.660156 83.226562 -58.175781 81.375 -59.15625 C 79.519531 -60.144531 77.164062 -60.429688 74.3125 -60.015625 C 70.375 -59.347656 66.394531 -57.832031 62.375 -55.46875 C 58.351562 -53.101562 54.378906 -50.15625 50.453125 -46.625 C 46.535156 -43.101562 42.757812 -39.257812 39.125 -35.09375 C 35.5 -30.9375 32.113281 -26.722656 28.96875 -22.453125 C 25.820312 -18.191406 23.015625 -14.144531 20.546875 -10.3125 C 18.085938 -6.488281 16.050781 -3.140625 14.4375 -0.265625 C 13.34375 1.679688 12.332031 3.660156 11.40625 5.671875 C 10.476562 7.679688 9.582031 9.710938 8.71875 11.765625 C 8.59375 12.046875 8.472656 12.332031 8.359375 12.625 C 8.097656 13.21875 7.84375 13.8125 7.59375 14.40625 C 7.332031 14.925781 7.054688 15.4375 6.765625 15.9375 C 6.222656 16.757812 5.457031 17.082031 4.46875 16.90625 C 4.007812 16.84375 3.65625 16.664062 3.40625 16.375 C 3.164062 16.082031 3.003906 15.710938 2.921875 15.265625 C 2.921875 15.242188 2.921875 15.21875 2.921875 15.1875 C 2.679688 14.09375 2.515625 13.003906 2.421875 11.921875 C 2.210938 7.140625 2.054688 2.46875 1.953125 -2.09375 C 1.835938 -6.90625 1.664062 -11.722656 1.4375 -16.546875 C 1.207031 -21.378906 0.769531 -26.328125 0.125 -31.390625 C 0.0390625 -31.847656 0 -32.328125 0 -32.828125 C 0.0195312 -33.296875 0.269531 -33.550781 0.75 -33.59375 C 1.175781 -33.625 1.5 -33.441406 1.71875 -33.046875 C 1.800781 -32.847656 1.851562 -32.644531 1.875 -32.4375 C 1.875 -32.414062 1.875 -32.375 1.875 -32.3125 C 2.757812 -26.445312 3.367188 -20.890625 3.703125 -15.640625 C 4.035156 -10.390625 4.289062 -5.09375 4.46875 0.25 C 4.601562 3.664062 4.765625 7.207031 4.953125 10.875 C 4.953125 10.925781 4.953125 10.992188 4.953125 11.078125 C 4.953125 11.273438 4.972656 11.484375 5.015625 11.703125 C 5.066406 11.929688 5.210938 12.144531 5.453125 12.34375 C 5.679688 12.144531 5.859375 11.921875 5.984375 11.671875 C 6.117188 11.421875 6.226562 11.164062 6.3125 10.90625 C 6.363281 10.800781 6.398438 10.695312 6.421875 10.59375 C 7.953125 6.757812 9.707031 3.039062 11.6875 -0.5625 C 13.675781 -4.175781 15.773438 -7.71875 17.984375 -11.1875 C 19.585938 -13.707031 21.5625 -16.613281 23.90625 -19.90625 C 26.25 -23.195312 28.894531 -26.65625 31.84375 -30.28125 C 34.789062 -33.914062 37.957031 -37.492188 41.34375 -41.015625 C 44.726562 -44.546875 48.242188 -47.789062 51.890625 -50.75 C 55.535156 -53.707031 59.222656 -56.171875 62.953125 -58.140625 C 66.691406 -60.109375 70.390625 -61.34375 74.046875 -61.84375 Z M 74.046875 -61.84375 "/></g></g></g><g fill="#e5ac5f" fill-opacity="1"><g transform="translate(81.141953, 102.936062)"><g><path d="M 7.421875 -7.109375 C 4.703125 -1.578125 3.265625 1.335938 3.109375 1.640625 C 2.929688 1.984375 2.75 2.335938 2.5625 2.703125 C 2.519531 2.796875 2.484375 2.894531 2.453125 3 C 2.085938 3.707031 1.734375 4.421875 1.390625 5.140625 C -0.753906 9.484375 -2.796875 13.84375 -4.734375 18.21875 C -4.734375 18.269531 -4.753906 18.320312 -4.796875 18.375 C -4.816406 18.476562 -4.863281 18.582031 -4.9375 18.6875 C -5.195312 19.050781 -5.519531 19.207031 -5.90625 19.15625 C -6.007812 19.175781 -6.113281 19.175781 -6.21875 19.15625 C -6.4375 19.101562 -6.597656 19.007812 -6.703125 18.875 C -6.816406 18.75 -6.835938 18.570312 -6.765625 18.34375 C -6.484375 17.476562 -6.148438 16.625 -5.765625 15.78125 C -4.410156 12.894531 -3.0625 10 -1.71875 7.09375 C -0.914062 5.351562 -0.109375 3.613281 0.703125 1.875 C 1.054688 1.175781 2.148438 -1.03125 3.984375 -4.75 C 5.816406 -8.46875 6.890625 -10.648438 7.203125 -11.296875 C 9.617188 -16.222656 12.15625 -21.101562 14.8125 -25.9375 C 16.53125 -29.101562 18.21875 -32.28125 19.875 -35.46875 C 20.0625 -35.863281 20.296875 -36.210938 20.578125 -36.515625 C 20.816406 -36.753906 21.101562 -36.894531 21.4375 -36.9375 C 21.539062 -37 21.644531 -37.015625 21.75 -36.984375 C 22.007812 -37.015625 22.207031 -36.941406 22.34375 -36.765625 C 22.488281 -36.597656 22.519531 -36.398438 22.4375 -36.171875 C 22.375 -35.992188 22.300781 -35.8125 22.21875 -35.625 C 21.75 -34.507812 21.226562 -33.40625 20.65625 -32.3125 C 18.726562 -28.601562 16.78125 -24.90625 14.8125 -21.21875 C 13.800781 -19.332031 12.804688 -17.441406 11.828125 -15.546875 C 11.335938 -14.640625 10.851562 -13.71875 10.375 -12.78125 C 10.195312 -12.4375 10.019531 -12.09375 9.84375 -11.75 C 9.8125 -11.6875 9.785156 -11.628906 9.765625 -11.578125 C 9.691406 -11.453125 9.632812 -11.320312 9.59375 -11.1875 C 9.550781 -11.0625 9.554688 -10.945312 9.609375 -10.84375 C 9.691406 -10.738281 9.796875 -10.671875 9.921875 -10.640625 C 10.046875 -10.671875 10.175781 -10.695312 10.3125 -10.71875 C 10.351562 -10.75 10.40625 -10.78125 10.46875 -10.8125 C 11.894531 -11.21875 13.320312 -11.628906 14.75 -12.046875 C 18.75 -13.210938 22.722656 -14.441406 26.671875 -15.734375 C 30.628906 -17.035156 34.554688 -18.476562 38.453125 -20.0625 C 40.878906 -21.050781 43.28125 -22.09375 45.65625 -23.1875 C 48.03125 -24.289062 50.359375 -25.515625 52.640625 -26.859375 C 54.554688 -27.984375 56.359375 -29.300781 58.046875 -30.8125 C 58.878906 -31.550781 59.609375 -32.394531 60.234375 -33.34375 C 61.492188 -35.226562 61.570312 -36.988281 60.46875 -38.625 C 59.789062 -39.601562 58.9375 -40.40625 57.90625 -41.03125 C 56.34375 -42.039062 54.65625 -42.832031 52.84375 -43.40625 C 48.394531 -44.757812 43.773438 -45.617188 38.984375 -45.984375 C 36.160156 -46.179688 33.304688 -46.289062 30.421875 -46.3125 C 28.859375 -46.3125 27.289062 -46.273438 25.71875 -46.203125 C 23.351562 -46.097656 20.984375 -45.890625 18.609375 -45.578125 C 16.234375 -45.265625 13.867188 -44.734375 11.515625 -43.984375 C 10.015625 -43.492188 8.550781 -42.875 7.125 -42.125 C 6.03125 -41.601562 5.054688 -40.914062 4.203125 -40.0625 C 3.972656 -39.800781 3.695312 -39.601562 3.375 -39.46875 C 3.21875 -39.394531 3.078125 -39.375 2.953125 -39.40625 C 2.691406 -39.375 2.472656 -39.445312 2.296875 -39.625 C 2.066406 -39.882812 2.066406 -40.171875 2.296875 -40.484375 C 2.660156 -40.972656 3.082031 -41.398438 3.5625 -41.765625 C 4.039062 -42.128906 4.539062 -42.457031 5.0625 -42.75 C 7.4375 -44.125 9.910156 -45.132812 12.484375 -45.78125 C 15.617188 -46.582031 18.757812 -47.070312 21.90625 -47.25 C 24.957031 -47.488281 28.019531 -47.617188 31.09375 -47.640625 L 31.15625 -47.640625 C 31.738281 -47.640625 32.320312 -47.640625 32.90625 -47.640625 C 35.84375 -47.597656 38.75 -47.453125 41.625 -47.203125 C 44.507812 -46.953125 47.351562 -46.515625 50.15625 -45.890625 C 51.601562 -45.554688 53.023438 -45.160156 54.421875 -44.703125 C 55.828125 -44.253906 57.179688 -43.691406 58.484375 -43.015625 C 59.910156 -42.316406 61.15625 -41.40625 62.21875 -40.28125 C 64.550781 -37.726562 64.429688 -34.894531 61.859375 -31.78125 C 60.671875 -30.394531 59.332031 -29.1875 57.84375 -28.15625 C 55.976562 -26.8125 54.0625 -25.597656 52.09375 -24.515625 C 50.125 -23.441406 48.113281 -22.453125 46.0625 -21.546875 C 41.832031 -19.597656 37.550781 -17.847656 33.21875 -16.296875 C 28.882812 -14.753906 24.53125 -13.335938 20.15625 -12.046875 C 16.726562 -11.003906 13.304688 -10.007812 9.890625 -9.0625 C 9.347656 -8.925781 8.863281 -8.707031 8.4375 -8.40625 C 8.019531 -8.101562 7.679688 -7.671875 7.421875 -7.109375 Z M 67.046875 7.578125 C 68.171875 8.546875 61.445312 6.859375 46.875 2.515625 C 36.894531 -0.523438 26.820312 -3.394531 16.65625 -6.09375 C 13.832031 -6.820312 10.992188 -7.519531 8.140625 -8.1875 C 6.992188 -8.476562 5.847656 -8.753906 4.703125 -9.015625 C 4.316406 -9.109375 3.925781 -9.1875 3.53125 -9.25 C 3.46875 -9.25 3.394531 -9.257812 3.3125 -9.28125 C 3.050781 -9.28125 3.085938 -9.625 3.421875 -10.3125 C 3.753906 -11.007812 4.171875 -11.226562 4.671875 -10.96875 C 5.316406 -10.625 6.84375 -10.113281 9.25 -9.4375 C 11.664062 -8.769531 14.785156 -7.914062 18.609375 -6.875 C 25.835938 -4.976562 34.472656 -2.5625 44.515625 0.375 C 58.410156 4.207031 65.921875 6.609375 67.046875 7.578125 Z M 67.046875 7.578125 "/></g></g></g><g fill="#e5ac5f" fill-opacity="1"><g transform="translate(76.248739, 139.883557)"><g><path d="M 3.421875 -15.375 C 3.640625 -15.375 4.070312 -15.394531 4.71875 -15.4375 C 5.625 -15.5 6.4375 -15.53125 7.15625 -15.53125 C 9.675781 -15.53125 11.5625 -14.890625 12.8125 -13.609375 C 14.0625 -12.335938 14.6875 -10.5 14.6875 -8.09375 C 14.6875 -6.375 14.375 -4.894531 13.75 -3.65625 C 13.125 -2.414062 12.234375 -1.46875 11.078125 -0.8125 C 9.921875 -0.164062 8.5625 0.15625 7 0.15625 C 6.507812 0.15625 5.789062 0.128906 4.84375 0.078125 C 4.25 0.0234375 3.785156 0 3.453125 0 L 1.90625 0 L 1.90625 -15.375 Z M 7.203125 -2.296875 C 8.484375 -2.316406 9.484375 -2.769531 10.203125 -3.65625 C 10.929688 -4.539062 11.296875 -5.90625 11.296875 -7.75 C 11.296875 -9.070312 11.132812 -10.125 10.8125 -10.90625 C 10.488281 -11.6875 10.003906 -12.25 9.359375 -12.59375 C 8.710938 -12.9375 7.875 -13.109375 6.84375 -13.109375 C 6.488281 -13.109375 6.054688 -13.078125 5.546875 -13.015625 L 5.140625 -12.96875 L 5.140625 -2.484375 C 5.597656 -2.359375 6.285156 -2.296875 7.203125 -2.296875 Z M 7.203125 -2.296875 "/></g></g></g><g fill="#e5ac5f" fill-opacity="1"><g transform="translate(91.949493, 139.883557)"><g><path d="M 11.265625 -15.375 L 11.265625 -12.90625 L 5.109375 -12.90625 L 5.109375 -9.09375 L 9.84375 -9.09375 L 9.84375 -6.65625 L 5.109375 -6.65625 L 5.109375 -2.53125 L 11.921875 -2.53125 L 11.921875 0 L 1.90625 0 L 1.90625 -15.375 Z M 11.265625 -15.375 "/></g></g></g><g fill="#e5ac5f" fill-opacity="1"><g transform="translate(104.619213, 139.883557)"><g><path d="M 3.390625 -15.375 L 6.265625 -6.984375 L 7.078125 -4.046875 L 7.90625 -6.984375 L 10.625 -15.375 L 14.046875 -15.375 L 8.390625 0.0625 L 5.671875 0.0625 L -0.046875 -15.375 Z M 3.390625 -15.375 "/></g></g></g></svg>