<svg xmlns="http://www.w3.org/2000/svg" xmlns:xlink="http://www.w3.org/1999/xlink" width="500" zoomAndPan="magnify" viewBox="0 0 375 374.999991" height="500" preserveAspectRatio="xMidYMid meet" version="1.0"><defs><filter x="0%" y="0%" width="100%" height="100%" id="id1"><feColorMatrix values="0 0 0 0 1 0 0 0 0 1 0 0 0 0 1 0 0 0 1 0" color-interpolation-filters="sRGB"/></filter><g/><clipPath id="id2"><path d="M 37.5 37.5 L 337.5 37.5 L 337.5 337.5 L 37.5 337.5 Z M 37.5 37.5 " clip-rule="nonzero"/></clipPath><mask id="id3"><g filter="url(#id1)"><rect x="-37.5" width="450" fill="#000000" y="-37.499999" height="449.999989" fill-opacity="0.7373"/></g></mask><clipPath id="id4"><path d="M 8 7 L 298 7 L 298 299 L 8 299 Z M 8 7 " clip-rule="nonzero"/></clipPath><clipPath id="id5"><path d="M 0.328125 11 L 290.242188 -2.960938 L 304.453125 292.199219 L 14.539062 306.160156 Z M 0.328125 11 " clip-rule="nonzero"/></clipPath><clipPath id="id6"><path d="M 0.328125 11 L 290.242188 -2.960938 L 304.453125 292.199219 L 14.539062 306.160156 Z M 0.328125 11 " clip-rule="nonzero"/></clipPath><clipPath id="id7"><path d="M 13 13 L 293 13 L 293 294 L 13 294 Z M 13 13 " clip-rule="nonzero"/></clipPath><clipPath id="id8"><path d="M 0.328125 11 L 290.242188 -2.960938 L 304.453125 292.199219 L 14.539062 306.160156 Z M 0.328125 11 " clip-rule="nonzero"/></clipPath><clipPath id="id9"><path d="M 0.328125 11 L 290.242188 -2.960938 L 304.453125 292.199219 L 14.539062 306.160156 Z M 0.328125 11 " clip-rule="nonzero"/></clipPath><clipPath id="id10"><path d="M 18 18 L 287 18 L 287 289 L 18 289 Z M 18 18 " clip-rule="nonzero"/></clipPath><clipPath id="id11"><path d="M 0.328125 11 L 290.242188 -2.960938 L 304.453125 292.199219 L 14.539062 306.160156 Z M 0.328125 11 " clip-rule="nonzero"/></clipPath><clipPath id="id12"><path d="M 0.328125 11 L 290.242188 -2.960938 L 304.453125 292.199219 L 14.539062 306.160156 Z M 0.328125 11 " clip-rule="nonzero"/></clipPath><clipPath id="id13"><path d="M 24 23 L 282 23 L 282 284 L 24 284 Z M 24 23 " clip-rule="nonzero"/></clipPath><clipPath id="id14"><path d="M 0.328125 11 L 290.242188 -2.960938 L 304.453125 292.199219 L 14.539062 306.160156 Z M 0.328125 11 " clip-rule="nonzero"/></clipPath><clipPath id="id15"><path d="M 0.328125 11 L 290.242188 -2.960938 L 304.453125 292.199219 L 14.539062 306.160156 Z M 0.328125 11 " clip-rule="nonzero"/></clipPath><clipPath id="id16"><path d="M 29 29 L 276 29 L 276 278 L 29 278 Z M 29 29 " clip-rule="nonzero"/></clipPath><clipPath id="id17"><path d="M 0.328125 11 L 290.242188 -2.960938 L 304.453125 292.199219 L 14.539062 306.160156 Z M 0.328125 11 " clip-rule="nonzero"/></clipPath><clipPath id="id18"><path d="M 0.328125 11 L 290.242188 -2.960938 L 304.453125 292.199219 L 14.539062 306.160156 Z M 0.328125 11 " clip-rule="nonzero"/></clipPath><clipPath id="id19"><rect x="0" width="305" y="0" height="307"/></clipPath></defs><path fill="#e5ac5f" d="M 307.097656 184.445312 C 307.042969 209.789062 298.582031 234.910156 283.609375 255.324219 C 269.34375 274.816406 249.273438 289.871094 226.546875 298.046875 C 202.949219 306.546875 176.804688 307.523438 152.664062 300.917969 C 129.285156 294.472656 108.078125 280.992188 92.292969 262.582031 C 76.34375 243.953125 66.253906 220.671875 63.707031 196.304688 C 60.992188 170.257812 67.773438 143.457031 81.714844 121.363281 C 94.570312 100.949219 113.5 84.597656 135.578125 74.796875 C 158.578125 64.617188 184.613281 61.800781 209.296875 66.785156 C 233.054688 71.550781 255.132812 83.570312 272.109375 100.84375 C 289.195312 118.222656 300.859375 140.585938 305.199219 164.574219 C 306.445312 171.398438 307.097656 178.328125 307.097656 185.257812 C 307.097656 187.097656 307.152344 185.3125 307.097656 184.445312 C 307.042969 159.59375 299.992188 135.335938 285.886719 114.757812 C 271.675781 94.074219 251.117188 77.9375 227.574219 69.222656 C 203.167969 60.179688 175.9375 59.203125 150.875 66.511719 C 126.683594 73.550781 104.984375 88.171875 89.308594 107.9375 C 73.578125 127.753906 64.410156 152.230469 63.164062 177.460938 C 61.96875 201.664062 67.015625 225.707031 79.164062 246.769531 C 91.585938 268.375 110.679688 285.972656 133.300781 296.585938 C 156.949219 307.6875 184.074219 310.828125 209.675781 305.574219 C 234.355469 300.539062 257.136719 287.707031 274.332031 269.296875 C 291.636719 250.832031 302.867188 227.058594 306.121094 201.988281 C 306.824219 196.414062 307.152344 190.835938 307.152344 185.203125 C 307.152344 184.339844 307.097656 182.550781 307.097656 184.445312 Z M 307.097656 184.445312 " fill-opacity="1" fill-rule="nonzero"/><path fill="#e5ac5f" d="M 218.570312 302.054688 C 194.324219 307.6875 168.722656 305.953125 145.558594 296.800781 C 123.046875 287.867188 103.410156 272.273438 89.742188 252.292969 C 75.152344 231.011719 67.070312 204.425781 68.640625 178.542969 C 70.160156 154.125 79.273438 130.40625 94.351562 111.128906 C 125.328125 71.601562 179.191406 54.871094 227.140625 69.980469 C 249.976562 77.179688 270.484375 91.097656 285.507812 109.722656 C 301.511719 129.488281 310.949219 154.179688 312.359375 179.519531 C 315.179688 229.769531 282.523438 277.90625 236.253906 296.476562 C 230.503906 298.75 224.59375 300.59375 218.570312 302.054688 C 218.355469 302.109375 218.734375 304.707031 218.570312 304.761719 C 243.632812 298.75 266.359375 285.050781 283.175781 265.503906 C 299.613281 246.390625 309.808594 222.242188 312.085938 197.171875 C 314.257812 173.238281 309.972656 148.871094 298.90625 127.484375 C 287.296875 105.011719 268.585938 86.546875 246.019531 75.015625 C 223.34375 63.371094 197.199219 59.148438 171.976562 63.046875 C 146.371094 67 122.34375 79.128906 104.007812 97.484375 C 86.269531 115.300781 74.28125 138.53125 70.105469 163.328125 C 66.144531 186.828125 68.804688 211.628906 78.078125 233.613281 C 87.898438 256.894531 105.09375 276.769531 126.683594 290.035156 C 148.378906 303.300781 174.089844 309.636719 199.476562 307.6875 C 205.933594 307.199219 212.277344 306.167969 218.570312 304.707031 C 218.789062 304.707031 218.410156 302.109375 218.570312 302.054688 Z M 218.570312 302.054688 " fill-opacity="1" fill-rule="nonzero"/><path fill="#e5ac5f" d="M 245.691406 290.953125 C 222.964844 303.136719 196.441406 307.738281 170.945312 304.21875 C 146.644531 300.863281 123.480469 290.304688 105.203125 273.953125 C 86.214844 257.058594 72.710938 234.207031 67.015625 209.460938 C 61.480469 185.53125 63.324219 160.078125 72.167969 137.175781 C 81.117188 114 97.121094 93.75 117.679688 79.726562 C 139.648438 64.726562 166.929688 57.851562 193.402344 59.636719 C 217.867188 61.261719 241.625 70.195312 261.042969 85.140625 C 281.277344 100.734375 296.300781 122.609375 303.789062 146.976562 C 311.003906 170.476562 310.894531 195.925781 303.679688 219.371094 C 296.410156 242.980469 281.980469 264.207031 262.617188 279.582031 C 257.136719 283.96875 251.226562 287.921875 245.042969 291.277344 C 243.359375 292.199219 244.933594 291.386719 245.691406 290.953125 C 267.878906 278.933594 286.160156 260.902344 297.765625 238.429688 C 309.429688 215.796875 313.933594 189.699219 310.351562 164.464844 C 306.664062 138.3125 294.402344 113.621094 275.796875 94.832031 C 257.84375 76.640625 234.246094 64.402344 209.078125 59.960938 C 183.800781 55.519531 157.4375 59.148438 134.277344 70.195312 C 112.089844 80.808594 92.996094 96.890625 80.03125 117.84375 C 66.6875 139.394531 60.179688 164.898438 61.644531 190.132812 C 63.164062 216.554688 73.414062 242.222656 90.449219 262.527344 C 106.882812 282.074219 129.339844 296.207031 154.074219 302.648438 C 178.917969 309.148438 205.605469 307.6875 229.582031 298.480469 C 234.898438 296.421875 240.050781 293.988281 245.097656 291.277344 C 245.800781 290.953125 247.429688 290.035156 245.691406 290.953125 Z M 245.691406 290.953125 " fill-opacity="1" fill-rule="nonzero"/><path fill="#e5ac5f" d="M 97.824219 268.808594 C 81.0625 249.910156 70.324219 226.300781 67.339844 201.230469 C 64.464844 176.867188 68.914062 151.851562 80.195312 130.027344 C 92.183594 106.746094 112.089844 86.710938 135.957031 75.664062 C 158.523438 65.214844 184.125 61.910156 208.644531 66.027344 C 258.929688 74.527344 299.882812 114.433594 309.484375 164.464844 C 314.039062 188.289062 311.492188 213.308594 302.105469 235.667969 C 292.179688 259.441406 274.660156 279.746094 252.691406 293.28125 C 209.132812 320.03125 150.332031 314.128906 111.386719 281.910156 C 106.558594 277.851562 102.054688 273.464844 97.824219 268.808594 C 97.660156 268.644531 95.546875 270.269531 95.382812 270.109375 C 112.851562 289.546875 136.066406 303.191406 161.667969 308.714844 C 186.675781 314.128906 213.203125 311.585938 236.742188 301.511719 C 259.144531 291.875 278.890625 276.335938 292.667969 256.191406 C 307.152344 235.019531 314.691406 209.410156 314.09375 183.796875 C 313.496094 157.96875 304.710938 132.628906 289.035156 112.050781 C 273.140625 91.152344 250.738281 75.554688 225.460938 68.082031 C 201.050781 60.828125 174.417969 61.316406 150.277344 69.546875 C 127.332031 77.398438 106.394531 91.691406 91.207031 110.589844 C 75.152344 130.570312 65.65625 155.476562 64.246094 181.089844 C 62.835938 206.863281 69.617188 232.746094 83.558594 254.457031 C 87.085938 259.980469 91.097656 265.179688 95.4375 270.054688 C 95.601562 270.269531 97.714844 268.644531 97.824219 268.808594 Z M 97.824219 268.808594 " fill-opacity="1" fill-rule="nonzero"/><g clip-path="url(#id2)"><path fill="#001229" d="M 337.5 187.5 C 337.5 189.953125 337.441406 192.410156 337.320312 194.859375 C 337.199219 197.3125 337.019531 199.757812 336.777344 202.203125 C 336.535156 204.644531 336.238281 207.082031 335.875 209.507812 C 335.515625 211.9375 335.097656 214.355469 334.617188 216.761719 C 334.140625 219.171875 333.601562 221.566406 333.003906 223.945312 C 332.40625 226.328125 331.753906 228.695312 331.039062 231.042969 C 330.328125 233.390625 329.558594 235.722656 328.730469 238.035156 C 327.90625 240.34375 327.019531 242.632812 326.082031 244.902344 C 325.140625 247.171875 324.148438 249.414062 323.097656 251.632812 C 322.046875 253.851562 320.945312 256.042969 319.789062 258.210938 C 318.632812 260.375 317.421875 262.507812 316.160156 264.617188 C 314.898438 266.722656 313.585938 268.792969 312.21875 270.835938 C 310.855469 272.875 309.445312 274.882812 307.980469 276.855469 C 306.519531 278.828125 305.007812 280.761719 303.453125 282.660156 C 301.894531 284.554688 300.292969 286.414062 298.644531 288.234375 C 296.992188 290.054688 295.300781 291.832031 293.566406 293.566406 C 291.832031 295.300781 290.054688 296.992188 288.234375 298.644531 C 286.414062 300.292969 284.554688 301.894531 282.660156 303.453125 C 280.761719 305.007812 278.828125 306.519531 276.855469 307.980469 C 274.882812 309.445312 272.875 310.855469 270.835938 312.21875 C 268.792969 313.585938 266.722656 314.898438 264.617188 316.160156 C 262.507812 317.421875 260.375 318.632812 258.210938 319.789062 C 256.042969 320.945312 253.851562 322.046875 251.632812 323.097656 C 249.414062 324.148438 247.171875 325.140625 244.902344 326.082031 C 242.632812 327.019531 240.34375 327.90625 238.035156 328.730469 C 235.722656 329.558594 233.390625 330.328125 231.042969 331.039062 C 228.695312 331.753906 226.328125 332.40625 223.945312 333.003906 C 221.566406 333.601562 219.171875 334.140625 216.761719 334.617188 C 214.355469 335.097656 211.9375 335.515625 209.507812 335.875 C 207.082031 336.238281 204.644531 336.535156 202.203125 336.777344 C 199.757812 337.019531 197.3125 337.199219 194.859375 337.320312 C 192.410156 337.441406 189.953125 337.5 187.5 337.5 C 185.046875 337.5 182.589844 337.441406 180.140625 337.320312 C 177.6875 337.199219 175.242188 337.019531 172.796875 336.777344 C 170.355469 336.535156 167.917969 336.238281 165.492188 335.875 C 163.0625 335.515625 160.644531 335.097656 158.238281 334.617188 C 155.828125 334.140625 153.433594 333.601562 151.054688 333.003906 C 148.671875 332.40625 146.304688 331.753906 143.957031 331.039062 C 141.609375 330.328125 139.277344 329.558594 136.964844 328.730469 C 134.65625 327.90625 132.367188 327.019531 130.097656 326.082031 C 127.828125 325.140625 125.585938 324.148438 123.367188 323.097656 C 121.148438 322.046875 118.957031 320.945312 116.789062 319.789062 C 114.625 318.632812 112.488281 317.421875 110.382812 316.160156 C 108.277344 314.898438 106.207031 313.585938 104.164062 312.21875 C 102.125 310.855469 100.117188 309.445312 98.144531 307.980469 C 96.171875 306.519531 94.238281 305.007812 92.339844 303.453125 C 90.441406 301.894531 88.585938 300.292969 86.765625 298.644531 C 84.945312 296.992188 83.167969 295.300781 81.433594 293.566406 C 79.699219 291.832031 78.007812 290.054688 76.355469 288.234375 C 74.707031 286.414062 73.105469 284.554688 71.546875 282.660156 C 69.992188 280.761719 68.480469 278.828125 67.019531 276.855469 C 65.554688 274.882812 64.144531 272.875 62.78125 270.835938 C 61.414062 268.792969 60.101562 266.722656 58.839844 264.617188 C 57.578125 262.507812 56.367188 260.375 55.210938 258.210938 C 54.054688 256.042969 52.953125 253.851562 51.902344 251.632812 C 50.851562 249.414062 49.859375 247.171875 48.917969 244.902344 C 47.980469 242.632812 47.09375 240.34375 46.269531 238.035156 C 45.441406 235.722656 44.671875 233.390625 43.957031 231.042969 C 43.246094 228.695312 42.589844 226.328125 41.996094 223.945312 C 41.398438 221.566406 40.859375 219.171875 40.382812 216.761719 C 39.902344 214.355469 39.484375 211.9375 39.125 209.507812 C 38.761719 207.082031 38.464844 204.644531 38.222656 202.203125 C 37.980469 199.757812 37.800781 197.3125 37.679688 194.859375 C 37.558594 192.410156 37.5 189.953125 37.5 187.5 C 37.5 185.046875 37.558594 182.589844 37.679688 180.140625 C 37.800781 177.6875 37.980469 175.242188 38.222656 172.796875 C 38.464844 170.355469 38.761719 167.917969 39.125 165.492188 C 39.484375 163.0625 39.902344 160.644531 40.382812 158.238281 C 40.859375 155.828125 41.398438 153.433594 41.996094 151.054688 C 42.589844 148.671875 43.246094 146.304688 43.957031 143.957031 C 44.671875 141.609375 45.441406 139.277344 46.269531 136.964844 C 47.09375 134.65625 47.980469 132.367188 48.917969 130.097656 C 49.859375 127.828125 50.851562 125.585938 51.902344 123.367188 C 52.953125 121.148438 54.054688 118.957031 55.210938 116.789062 C 56.367188 114.625 57.578125 112.488281 58.839844 110.382812 C 60.101562 108.277344 61.414062 106.207031 62.78125 104.164062 C 64.144531 102.125 65.554688 100.117188 67.019531 98.144531 C 68.480469 96.171875 69.992188 94.238281 71.546875 92.339844 C 73.105469 90.445312 74.707031 88.585938 76.355469 86.765625 C 78.007812 84.945312 79.699219 83.167969 81.433594 81.433594 C 83.167969 79.699219 84.945312 78.007812 86.765625 76.355469 C 88.585938 74.707031 90.441406 73.105469 92.339844 71.546875 C 94.238281 69.992188 96.171875 68.480469 98.144531 67.019531 C 100.117188 65.554688 102.125 64.144531 104.164062 62.78125 C 106.207031 61.414062 108.277344 60.101562 110.382812 58.839844 C 112.488281 57.578125 114.625 56.367188 116.789062 55.210938 C 118.957031 54.054688 121.148438 52.953125 123.367188 51.902344 C 125.585938 50.851562 127.828125 49.859375 130.097656 48.917969 C 132.367188 47.980469 134.65625 47.09375 136.964844 46.269531 C 139.277344 45.441406 141.609375 44.671875 143.957031 43.957031 C 146.304688 43.246094 148.671875 42.589844 151.054688 41.996094 C 153.433594 41.398438 155.828125 40.859375 158.238281 40.382812 C 160.644531 39.902344 163.0625 39.484375 165.492188 39.125 C 167.917969 38.761719 170.355469 38.464844 172.796875 38.222656 C 175.242188 37.980469 177.6875 37.800781 180.140625 37.679688 C 182.589844 37.558594 185.046875 37.5 187.5 37.5 C 189.953125 37.5 192.410156 37.558594 194.859375 37.679688 C 197.3125 37.800781 199.757812 37.980469 202.203125 38.222656 C 204.644531 38.464844 207.082031 38.761719 209.507812 39.125 C 211.9375 39.484375 214.355469 39.902344 216.761719 40.382812 C 219.171875 40.859375 221.566406 41.398438 223.945312 41.996094 C 226.328125 42.589844 228.695312 43.246094 231.042969 43.957031 C 233.390625 44.671875 235.722656 45.441406 238.035156 46.269531 C 240.34375 47.09375 242.632812 47.980469 244.902344 48.917969 C 247.171875 49.859375 249.414062 50.851562 251.632812 51.902344 C 253.851562 52.953125 256.042969 54.054688 258.210938 55.210938 C 260.375 56.367188 262.511719 57.578125 264.617188 58.839844 C 266.722656 60.101562 268.792969 61.414062 270.835938 62.78125 C 272.875 64.144531 274.882812 65.554688 276.855469 67.019531 C 278.828125 68.480469 280.761719 69.992188 282.660156 71.546875 C 284.554688 73.105469 286.414062 74.707031 288.234375 76.355469 C 290.054688 78.007812 291.832031 79.699219 293.566406 81.433594 C 295.300781 83.167969 296.992188 84.945312 298.644531 86.765625 C 300.292969 88.585938 301.894531 90.445312 303.453125 92.339844 C 305.007812 94.238281 306.519531 96.171875 307.980469 98.144531 C 309.445312 100.117188 310.855469 102.125 312.21875 104.164062 C 313.585938 106.207031 314.898438 108.277344 316.160156 110.382812 C 317.421875 112.488281 318.632812 114.625 319.789062 116.789062 C 320.945312 118.957031 322.046875 121.148438 323.097656 123.367188 C 324.148438 125.585938 325.140625 127.828125 326.082031 130.097656 C 327.019531 132.367188 327.90625 134.65625 328.730469 136.964844 C 329.558594 139.277344 330.328125 141.609375 331.042969 143.957031 C 331.753906 146.304688 332.40625 148.671875 333.003906 151.054688 C 333.601562 153.433594 334.140625 155.828125 334.617188 158.238281 C 335.097656 160.644531 335.515625 163.0625 335.875 165.492188 C 336.238281 167.917969 336.535156 170.355469 336.777344 172.796875 C 337.019531 175.242188 337.199219 177.6875 337.320312 180.140625 C 337.441406 182.589844 337.5 185.046875 337.5 187.5 Z M 337.5 187.5 " fill-opacity="1" fill-rule="nonzero"/></g><g mask="url(#id3)"><g transform="matrix(1, 0, 0, 1, 35, 36)"><g clip-path="url(#id19)"><g clip-path="url(#id4)"><g clip-path="url(#id5)"><g clip-path="url(#id6)"><path fill="#e5ac5f" d="M 296.144531 145.171875 C 295.957031 143.824219 295.847656 139.023438 294.746094 131.4375 C 294.191406 127.644531 293.359375 123.128906 292.136719 118.136719 C 291.832031 116.917969 291.519531 115.578125 291.085938 114.242188 C 290.652344 112.910156 290.34375 111.570312 289.902344 110.113281 C 289.464844 108.65625 288.910156 107.324219 288.464844 105.746094 C 288.023438 104.289062 287.457031 102.714844 286.894531 101.261719 C 286.328125 99.6875 285.640625 98.242188 285.066406 96.546875 C 284.378906 94.976562 283.6875 93.410156 282.867188 91.722656 C 282.171875 90.03125 281.355469 88.46875 280.414062 86.789062 C 279.597656 85.105469 278.777344 83.417969 277.710938 81.746094 C 273.945312 75.027344 269.304688 68.105469 263.8125 61.347656 C 258.195312 54.59375 251.722656 47.882812 244.160156 41.597656 C 236.605469 35.429688 228.085938 29.679688 218.621094 24.714844 C 209.160156 19.871094 198.746094 15.691406 187.667969 13.023438 C 176.589844 10.351562 164.824219 8.703125 152.773438 8.789062 C 149.703125 8.9375 146.746094 8.832031 143.683594 9.105469 C 142.210938 9.175781 140.621094 9.375 139.148438 9.445312 C 137.679688 9.640625 136.089844 9.839844 134.5 10.039062 C 131.4375 10.308594 128.398438 11.070312 125.34375 11.464844 C 123.757812 11.789062 122.296875 12.105469 120.714844 12.425781 C 119.132812 12.75 117.671875 13.066406 116.09375 13.511719 C 114.515625 13.957031 113.058594 14.398438 111.480469 14.84375 C 109.902344 15.289062 108.453125 15.851562 107 16.289062 C 103.972656 17.300781 100.957031 18.554688 98.058594 19.679688 C 92.15625 22.304688 86.261719 25.050781 80.640625 28.402344 C 58.148438 41.683594 38.703125 61.960938 26.222656 86.339844 C 24.644531 89.375 23.199219 92.523438 21.875 95.667969 C 20.671875 98.804688 19.230469 102.078125 18.277344 105.328125 C 17.082031 108.585938 16.261719 111.953125 15.308594 115.203125 C 14.894531 116.824219 14.488281 118.570312 14.074219 120.191406 C 13.871094 121.0625 13.660156 121.8125 13.457031 122.683594 L 12.964844 125.296875 C 10.421875 138.847656 9.992188 152.914062 11.390625 166.644531 C 12.089844 173.507812 13.402344 180.34375 15.078125 187.042969 C 16.875 193.730469 19.039062 200.28125 21.683594 206.683594 C 24.453125 213.078125 27.453125 219.21875 31.058594 225.082031 C 34.660156 230.945312 38.5 236.550781 42.816406 241.886719 C 59.949219 262.992188 82.96875 278.636719 107.484375 286.945312 C 119.742188 291.160156 132.28125 293.511719 144.742188 294.265625 C 157.207031 295.023438 169.339844 294.070312 180.921875 291.910156 C 204.199219 287.339844 224.878906 277.347656 241.121094 264.617188 C 257.492188 252 269.558594 236.882812 277.84375 222.4375 C 282.046875 215.210938 285.269531 208.035156 287.773438 201.261719 C 290.277344 194.488281 292.054688 187.996094 293.371094 182.140625 C 296.007812 170.433594 296.535156 160.921875 296.59375 154.511719 C 296.640625 152.910156 296.691406 151.425781 296.632812 150.199219 C 296.574219 148.96875 296.527344 147.984375 296.605469 147.121094 C 296.53125 145.519531 296.609375 144.65625 296.609375 144.65625 C 297.945312 157.035156 297.8125 169.609375 295.957031 182.140625 C 294.097656 194.671875 290.632812 207.039062 285.542969 218.863281 C 277.324219 234.660156 266.328125 248.988281 253.242188 260.828125 C 240.03125 272.675781 224.742188 282.160156 208.320312 288.617188 C 200.113281 291.847656 191.496094 294.355469 182.84375 296.003906 C 174.1875 297.65625 165.371094 298.570312 156.519531 298.628906 C 138.9375 298.859375 121.207031 296.015625 104.671875 289.914062 C 71.496094 277.957031 43.011719 253.582031 26.269531 222.722656 C 17.777344 207.363281 12.164062 190.382812 9.726562 173.007812 C 7.292969 155.628906 7.917969 137.980469 11.644531 120.800781 C 15.375 103.742188 22.335938 87.390625 31.84375 72.765625 C 41.351562 58.136719 53.527344 45.355469 67.546875 34.945312 C 95.121094 14.890625 130.695312 5.046875 165.167969 8.191406 C 182.34375 9.707031 199.417969 14.304688 214.914062 21.8125 C 230.527344 29.316406 244.6875 39.722656 256.476562 52.089844 C 268.394531 64.578125 278.078125 79.140625 284.75 95.082031 C 291.546875 111.019531 295.320312 128.085938 296.144531 145.171875 Z M 296.144531 145.171875 " fill-opacity="1" fill-rule="nonzero"/></g></g></g><g clip-path="url(#id7)"><g clip-path="url(#id8)"><g clip-path="url(#id9)"><path fill="#e5ac5f" d="M 290.742188 145.429688 C 290.554688 144.085938 290.460938 139.53125 289.375 132.3125 C 288.828125 128.644531 288.128906 124.367188 286.910156 119.496094 C 286.605469 118.277344 286.300781 117.0625 285.992188 115.722656 C 285.679688 114.378906 285.253906 113.167969 284.8125 111.710938 C 284.378906 110.378906 283.945312 109.042969 283.386719 107.59375 C 282.945312 106.132812 282.382812 104.683594 281.820312 103.230469 C 281.261719 101.78125 280.699219 100.328125 280.007812 98.761719 C 279.324219 97.316406 278.632812 95.746094 277.941406 94.179688 C 277.25 92.609375 276.4375 91.046875 275.625 89.484375 C 274.808594 87.921875 273.992188 86.238281 273.054688 84.679688 C 269.421875 78.203125 265.039062 71.515625 259.679688 64.996094 C 254.324219 58.476562 247.984375 52.007812 240.800781 45.945312 C 233.503906 40.015625 225.363281 34.492188 216.277344 29.753906 C 207.199219 25.140625 197.160156 21.066406 186.578125 18.496094 C 175.875 15.929688 164.605469 14.378906 152.921875 14.449219 C 129.675781 14.582031 105.113281 20.570312 83.472656 33.5625 C 61.816406 46.308594 43.074219 65.816406 31.039062 89.3125 C 29.457031 92.222656 28.128906 95.242188 26.796875 98.261719 C 25.59375 101.402344 24.265625 104.421875 23.308594 107.546875 C 22.226562 110.679688 21.277344 113.929688 20.441406 117.050781 C 20.027344 118.671875 19.738281 120.289062 19.324219 121.910156 C 19.121094 122.78125 18.910156 123.53125 18.828125 124.398438 L 18.332031 126.882812 C 15.886719 139.9375 15.433594 153.511719 16.808594 166.753906 C 17.496094 173.371094 18.796875 179.960938 20.339844 186.417969 C 22.003906 192.867188 24.152344 199.171875 26.664062 205.332031 C 29.296875 211.488281 32.285156 217.382812 35.632812 223.011719 C 39.101562 228.636719 42.804688 234 46.988281 239.097656 C 63.59375 259.488281 85.597656 274.445312 109.234375 282.425781 C 120.996094 286.539062 133.160156 288.789062 145.007812 289.574219 C 156.980469 290.351562 168.746094 289.414062 179.839844 287.28125 C 202.261719 282.875 222.101562 273.292969 237.746094 260.960938 C 253.398438 248.746094 265.125 234.261719 273.066406 220.328125 C 277.035156 213.359375 280.148438 206.433594 282.664062 199.90625 C 285.054688 193.382812 286.847656 187.136719 288.054688 181.535156 C 290.582031 170.203125 291.125 161.058594 291.199219 154.894531 C 291.246094 153.292969 291.300781 151.933594 291.25 150.828125 C 291.191406 149.597656 291.144531 148.613281 291.230469 147.871094 C 291.152344 146.273438 291.234375 145.40625 291.234375 145.40625 C 292.542969 157.292969 292.515625 169.492188 290.757812 181.527344 C 289 193.5625 285.765625 205.546875 280.773438 216.875 C 272.890625 232.039062 262.238281 245.859375 249.625 257.308594 C 236.890625 268.761719 222.195312 277.847656 206.253906 284.035156 C 198.285156 287.128906 190.15625 289.492188 181.746094 291.128906 C 173.335938 292.765625 164.882812 293.542969 156.402344 293.707031 C 139.4375 293.90625 122.324219 291.15625 106.417969 285.269531 C 74.128906 273.890625 46.796875 250.441406 30.597656 220.667969 C 22.5 205.78125 17.042969 189.535156 14.644531 172.894531 C 12.359375 156.125 12.894531 139.097656 16.53125 122.660156 C 20.039062 106.105469 26.785156 90.378906 35.953125 76.386719 C 45.117188 62.269531 56.828125 50 70.25 39.992188 C 97.21875 20.089844 131.574219 10.550781 164.691406 13.636719 C 181.246094 15.054688 197.574219 19.445312 212.566406 26.730469 C 227.554688 34.015625 241.199219 43.957031 252.605469 55.972656 C 264.007812 67.992188 273.414062 81.953125 279.8125 97.292969 C 286.328125 112.5 289.949219 128.960938 290.742188 145.429688 Z M 290.742188 145.429688 " fill-opacity="1" fill-rule="nonzero"/></g></g></g><g clip-path="url(#id10)"><g clip-path="url(#id11)"><g clip-path="url(#id12)"><path fill="#e5ac5f" d="M 285.34375 145.691406 C 285.160156 144.46875 285.070312 140.035156 284.121094 133.058594 C 283.578125 129.511719 282.894531 125.480469 281.679688 120.734375 C 281.375 119.515625 281.070312 118.296875 280.765625 117.082031 C 280.460938 115.863281 280.027344 114.53125 279.722656 113.3125 C 279.289062 111.976562 278.855469 110.644531 278.421875 109.308594 C 277.992188 107.976562 277.550781 106.519531 276.996094 105.1875 C 276.433594 103.738281 275.878906 102.410156 275.308594 100.835938 C 274.625 99.390625 274.0625 97.9375 273.371094 96.371094 C 272.679688 94.800781 271.875 93.363281 271.183594 91.792969 C 270.371094 90.230469 269.679688 88.664062 268.75 87.230469 C 265.25 80.992188 261.003906 74.542969 255.902344 68.257812 C 250.800781 61.972656 244.71875 55.738281 237.800781 50.035156 C 230.882812 44.328125 222.871094 38.925781 214.164062 34.414062 C 205.460938 29.90625 195.800781 26.058594 185.59375 23.59375 C 175.386719 21.128906 164.492188 19.683594 153.300781 19.730469 C 131.035156 19.816406 107.449219 25.632812 86.640625 38.09375 C 65.46875 50.570312 47.417969 69.179688 35.835938 91.792969 C 34.371094 94.574219 33.03125 97.46875 31.820312 100.363281 C 30.609375 103.378906 29.398438 106.269531 28.433594 109.273438 C 27.347656 112.28125 26.515625 115.402344 25.675781 118.398438 C 25.253906 119.898438 24.964844 121.515625 24.542969 123.011719 C 24.332031 123.761719 24.125 124.511719 24.042969 125.378906 L 23.671875 127.859375 C 21.320312 140.417969 20.839844 153.375 22.191406 166.125 C 22.867188 172.496094 24.035156 178.847656 25.5625 185.058594 C 27.214844 191.261719 29.230469 197.324219 31.605469 203.246094 C 34.105469 209.164062 36.960938 214.816406 40.171875 220.207031 C 43.507812 225.589844 47.082031 230.839844 51.007812 235.699219 C 66.957031 255.261719 88.195312 269.640625 110.832031 277.296875 C 122.09375 281.191406 133.761719 283.339844 145.238281 284.140625 C 156.714844 284.820312 167.996094 284.03125 178.71875 281.914062 C 200.167969 277.675781 219.28125 268.378906 234.34375 256.6875 C 249.402344 244.996094 260.542969 231.03125 268.261719 217.601562 C 272.121094 210.886719 275.121094 204.210938 277.402344 197.941406 C 279.683594 191.671875 281.363281 185.675781 282.582031 180.320312 C 285.011719 169.484375 285.449219 160.714844 285.535156 154.796875 C 285.585938 153.316406 285.644531 151.960938 285.589844 150.851562 C 285.539062 149.746094 285.492188 148.761719 285.578125 148.019531 C 285.507812 146.546875 285.464844 145.683594 285.464844 145.683594 C 286.753906 157.082031 286.699219 168.789062 285.046875 180.449219 C 283.390625 191.984375 280.257812 203.59375 275.488281 214.417969 C 267.953125 229.074219 257.644531 242.382812 245.496094 253.316406 C 233.234375 264.378906 219.136719 273.066406 203.804688 279.101562 C 196.195312 282.058594 188.3125 284.40625 180.269531 286.027344 C 172.226562 287.644531 164.023438 288.410156 155.902344 288.433594 C 139.550781 288.605469 123.183594 285.941406 107.777344 280.277344 C 77.101562 269.1875 50.675781 246.683594 35.144531 217.984375 C 27.320312 203.699219 22.140625 188.054688 19.769531 172.03125 C 17.519531 156 18.078125 139.464844 21.621094 123.644531 C 25.042969 107.835938 31.574219 92.734375 40.398438 79.25 C 49.222656 65.765625 60.460938 53.890625 73.40625 44.273438 C 99.304688 25.164062 132.203125 15.941406 164.210938 18.957031 C 180.152344 20.40625 195.855469 24.578125 210.21875 31.648438 C 224.578125 38.597656 237.710938 48.191406 248.726562 59.734375 C 259.738281 71.277344 268.628906 84.769531 274.871094 99.378906 C 281.117188 114.109375 284.578125 129.835938 285.34375 145.691406 Z M 285.34375 145.691406 " fill-opacity="1" fill-rule="nonzero"/></g></g></g><g clip-path="url(#id13)"><g clip-path="url(#id14)"><g clip-path="url(#id15)"><path fill="#e5ac5f" d="M 279.941406 145.949219 C 279.761719 144.726562 279.683594 140.542969 278.742188 133.8125 C 278.214844 130.511719 277.527344 126.476562 276.449219 121.972656 C 276.273438 120.871094 275.847656 119.660156 275.546875 118.566406 C 275.242188 117.347656 274.816406 116.136719 274.511719 114.917969 C 274.082031 113.707031 273.648438 112.371094 273.222656 111.160156 C 272.789062 109.828125 272.355469 108.492188 271.800781 107.164062 C 271.242188 105.835938 270.683594 104.382812 270.125 103.054688 C 269.570312 101.726562 268.886719 100.28125 268.199219 98.835938 C 267.636719 97.386719 266.832031 95.945312 266.023438 94.507812 C 265.339844 93.058594 264.527344 91.496094 263.59375 90.0625 C 260.230469 84.066406 256.246094 77.976562 251.28125 71.929688 C 246.429688 65.757812 240.613281 59.878906 233.945312 54.285156 C 227.285156 48.816406 219.652344 43.636719 211.328125 39.359375 C 202.878906 35.082031 193.71875 31.335938 183.886719 28.976562 C 174.054688 26.613281 163.648438 25.144531 152.953125 25.289062 C 131.546875 25.335938 108.9375 30.980469 88.964844 42.910156 C 68.988281 54.710938 51.769531 72.667969 40.753906 94.265625 C 39.28125 96.921875 38.183594 99.6875 36.839844 102.460938 C 35.75 105.347656 34.53125 108.117188 33.5625 110.996094 C 32.46875 113.882812 31.753906 116.875 30.90625 119.75 C 30.488281 121.246094 30.191406 122.742188 29.894531 124.234375 C 29.683594 124.984375 29.472656 125.730469 29.386719 126.476562 L 29 128.710938 C 26.753906 140.769531 26.367188 153.234375 27.574219 165.496094 C 30.109375 190.011719 39.976562 213.5625 55.390625 232.164062 C 70.683594 250.894531 91.035156 264.699219 112.675781 272.15625 C 123.5625 275.945312 134.734375 277.992188 145.714844 278.695312 C 156.699219 279.398438 167.605469 278.503906 177.851562 276.65625 C 198.445312 272.585938 216.71875 263.695312 231.183594 252.40625 C 245.648438 241.113281 256.324219 227.785156 263.707031 214.988281 C 267.332031 208.527344 270.226562 202.230469 272.519531 196.207031 C 274.691406 190.1875 276.382812 184.4375 277.488281 179.332031 C 279.816406 168.871094 280.273438 160.472656 280.367188 154.800781 C 280.421875 153.320312 280.484375 152.085938 280.429688 150.976562 C 280.378906 149.871094 280.335938 149.011719 280.421875 148.269531 C 280.351562 146.792969 280.316406 146.054688 280.316406 146.054688 C 281.578125 156.960938 281.632812 168.292969 280.074219 179.332031 C 278.519531 190.496094 275.601562 201.476562 271.066406 212.046875 C 263.746094 226.074219 254.027344 238.863281 242.234375 249.410156 C 230.4375 259.957031 216.820312 268.375 202.210938 274.128906 C 194.84375 276.949219 187.320312 279.15625 179.523438 280.765625 C 171.84375 282.242188 163.882812 282.996094 156.140625 283.125 C 140.398438 283.265625 124.652344 280.695312 110 275.367188 C 80.578125 264.707031 55.171875 243.015625 40.316406 215.519531 C 32.769531 201.835938 27.859375 186.796875 25.640625 171.378906 C 23.546875 155.957031 24.140625 140.15625 27.34375 124.972656 C 30.671875 109.78125 36.867188 95.316406 45.34375 82.339844 C 53.824219 69.363281 64.59375 58.003906 77.070312 48.777344 C 101.898438 30.457031 133.460938 21.667969 164.109375 24.507812 C 179.429688 25.863281 194.511719 29.941406 208.246094 36.671875 C 221.980469 43.402344 234.597656 52.527344 245.097656 63.605469 C 255.597656 74.679688 264.214844 87.570312 270.183594 101.699219 C 275.898438 115.589844 279.207031 130.707031 279.941406 145.949219 Z M 279.941406 145.949219 " fill-opacity="1" fill-rule="nonzero"/></g></g></g><g clip-path="url(#id16)"><g clip-path="url(#id17)"><g clip-path="url(#id18)"><path fill="#e5ac5f" d="M 274.542969 146.210938 C 274.359375 144.988281 274.292969 141.046875 273.367188 134.5625 C 272.84375 131.386719 272.167969 127.597656 271.097656 123.214844 C 270.921875 122.113281 270.5 121.027344 270.199219 119.929688 C 269.902344 118.835938 269.597656 117.621094 269.167969 116.40625 C 268.863281 115.191406 268.316406 113.984375 268.011719 112.765625 C 267.582031 111.554688 267.148438 110.222656 266.597656 109.015625 C 266.042969 107.6875 265.609375 106.351562 265.054688 105.023438 C 264.496094 103.695312 263.820312 102.375 263.257812 100.921875 C 262.695312 99.472656 261.894531 98.15625 261.207031 96.710938 C 260.523438 95.261719 259.839844 93.816406 258.914062 92.507812 C 255.683594 86.75 251.835938 80.898438 247.125 75.085938 C 242.417969 69.277344 236.855469 63.632812 230.445312 58.273438 C 224.042969 53.035156 216.792969 48.089844 208.722656 44.042969 C 200.648438 39.871094 191.875 36.476562 182.53125 34.089844 C 173.195312 31.832031 163.167969 30.464844 152.960938 30.585938 C 132.421875 30.714844 110.898438 35.9375 91.769531 47.457031 C 72.625 58.726562 56.109375 75.90625 45.539062 96.621094 C 44.1875 99.152344 43.089844 101.914062 41.863281 104.5625 C 40.765625 107.324219 39.664062 109.964844 38.8125 112.714844 C 37.835938 115.472656 37.113281 118.339844 36.261719 121.09375 C 35.835938 122.46875 35.539062 123.960938 35.234375 125.332031 C 35.027344 126.082031 34.933594 126.703125 34.722656 127.449219 L 34.332031 129.5625 C 32.183594 141.125 31.769531 152.972656 32.949219 164.742188 C 35.308594 188.160156 44.882812 210.738281 59.523438 228.636719 C 74.171875 246.660156 93.632812 259.890625 114.390625 266.898438 C 124.773438 270.464844 135.449219 272.414062 145.941406 273.140625 C 156.425781 273.746094 166.847656 272.996094 176.726562 271.167969 C 196.46875 267.257812 214.019531 258.777344 227.773438 248.011719 C 241.648438 237.238281 251.855469 224.429688 258.894531 212.136719 C 262.40625 205.933594 265.191406 199.882812 267.375 194.113281 C 269.433594 188.34375 271.015625 182.847656 272.128906 177.867188 C 274.355469 167.902344 274.832031 159.871094 274.9375 154.445312 C 274.996094 153.089844 275.058594 151.851562 275.011719 150.871094 C 274.964844 149.886719 274.917969 148.902344 275.011719 148.28125 C 274.945312 146.929688 274.910156 146.191406 274.910156 146.191406 C 276.15625 156.726562 276.179688 167.445312 274.722656 178.113281 C 273.269531 188.777344 270.457031 199.382812 266.144531 209.449219 C 259.167969 222.96875 249.789062 235.125 238.46875 245.277344 C 227.144531 255.433594 214.121094 263.453125 200.113281 268.933594 C 193.113281 271.734375 185.832031 273.808594 178.398438 275.273438 C 170.964844 276.742188 163.496094 277.472656 155.867188 277.46875 C 140.746094 277.703125 125.742188 275.222656 111.585938 269.992188 C 83.414062 259.765625 59.039062 239.011719 44.726562 212.59375 C 37.578125 199.511719 32.824219 185.078125 30.632812 170.277344 C 28.566406 155.46875 29.1875 140.285156 32.308594 125.84375 C 35.421875 111.277344 41.398438 97.4375 49.53125 84.972656 C 57.667969 72.507812 67.96875 61.660156 79.96875 52.828125 C 103.855469 35.292969 134.078125 26.8125 163.371094 29.59375 C 178.070312 30.855469 192.40625 34.722656 205.636719 41.234375 C 218.875 47.863281 230.859375 56.652344 240.96875 67.253906 C 251.074219 77.855469 259.300781 90.269531 264.988281 103.671875 C 270.683594 117.199219 273.835938 131.582031 274.542969 146.210938 Z M 274.542969 146.210938 " fill-opacity="1" fill-rule="nonzero"/></g></g></g></g></g></g><g fill="#e5ac5f" fill-opacity="1"><g transform="translate(108.308397, 198.969097)"><g><path d="M 143.109375 -119.53125 C 149.378906 -120.320312 154.769531 -119.742188 159.28125 -117.796875 C 163.789062 -115.847656 167.019531 -112.671875 168.96875 -108.265625 C 170.914062 -103.859375 171.238281 -98.335938 169.9375 -91.703125 C 169.226562 -88.148438 168.25 -84.695312 167 -81.34375 C 166.75 -80.59375 166.390625 -79.914062 165.921875 -79.3125 C 165.453125 -78.707031 164.785156 -78.300781 163.921875 -78.09375 C 163.628906 -78.007812 163.332031 -77.976562 163.03125 -78 C 162.738281 -78.019531 162.488281 -78.179688 162.28125 -78.484375 C 162.164062 -78.679688 162.097656 -78.90625 162.078125 -79.15625 C 162.054688 -79.40625 162.066406 -79.632812 162.109375 -79.84375 C 163.566406 -83.644531 164.648438 -87.53125 165.359375 -91.5 C 166.410156 -96.894531 166.222656 -101.578125 164.796875 -105.546875 C 163.367188 -109.515625 160.859375 -112.445312 157.265625 -114.34375 C 153.679688 -116.25 149.132812 -116.800781 143.625 -116 C 136.007812 -114.707031 128.316406 -111.773438 120.546875 -107.203125 C 112.773438 -102.640625 105.101562 -96.945312 97.53125 -90.125 C 89.957031 -83.3125 82.660156 -75.882812 75.640625 -67.84375 C 68.617188 -59.800781 62.066406 -51.65625 55.984375 -43.40625 C 49.898438 -35.15625 44.476562 -27.332031 39.71875 -19.9375 C 34.957031 -12.550781 31.015625 -6.078125 27.890625 -0.515625 C 25.796875 3.242188 23.847656 7.066406 22.046875 10.953125 C 20.242188 14.835938 18.507812 18.765625 16.84375 22.734375 C 16.59375 23.273438 16.367188 23.832031 16.171875 24.40625 C 15.671875 25.539062 15.164062 26.691406 14.65625 27.859375 C 14.15625 28.859375 13.632812 29.835938 13.09375 30.796875 C 12.039062 32.390625 10.554688 33.015625 8.640625 32.671875 C 7.753906 32.554688 7.070312 32.210938 6.59375 31.640625 C 6.113281 31.078125 5.796875 30.363281 5.640625 29.5 C 5.640625 29.445312 5.640625 29.398438 5.640625 29.359375 C 5.179688 27.242188 4.863281 25.132812 4.6875 23.03125 C 4.269531 13.800781 3.960938 4.78125 3.765625 -4.03125 C 3.554688 -13.351562 3.226562 -22.675781 2.78125 -32 C 2.34375 -41.332031 1.492188 -50.890625 0.234375 -60.671875 C 0.078125 -61.554688 0 -62.476562 0 -63.4375 C 0.0390625 -64.351562 0.519531 -64.851562 1.4375 -64.9375 C 2.28125 -64.988281 2.90625 -64.632812 3.3125 -63.875 C 3.476562 -63.488281 3.582031 -63.09375 3.625 -62.6875 C 3.625 -62.644531 3.625 -62.566406 3.625 -62.453125 C 5.332031 -51.117188 6.507812 -40.375 7.15625 -30.21875 C 7.8125 -20.070312 8.304688 -9.835938 8.640625 0.484375 C 8.898438 7.085938 9.210938 13.929688 9.578125 21.015625 C 9.578125 21.109375 9.578125 21.234375 9.578125 21.390625 C 9.578125 21.785156 9.617188 22.195312 9.703125 22.625 C 9.796875 23.0625 10.070312 23.472656 10.53125 23.859375 C 10.988281 23.472656 11.34375 23.039062 11.59375 22.5625 C 11.84375 22.082031 12.046875 21.59375 12.203125 21.09375 C 12.296875 20.882812 12.363281 20.675781 12.40625 20.46875 C 15.363281 13.0625 18.765625 5.875 22.609375 -1.09375 C 26.453125 -8.0625 30.503906 -14.910156 34.765625 -21.640625 C 37.859375 -26.492188 41.671875 -32.101562 46.203125 -38.46875 C 50.742188 -44.832031 55.863281 -51.523438 61.5625 -58.546875 C 67.257812 -65.566406 73.375 -72.484375 79.90625 -79.296875 C 86.445312 -86.109375 93.238281 -92.375 100.28125 -98.09375 C 107.320312 -103.8125 114.453125 -108.570312 121.671875 -112.375 C 128.898438 -116.1875 136.046875 -118.570312 143.109375 -119.53125 Z M 143.109375 -119.53125 "/></g></g></g><g fill="#e5ac5f" fill-opacity="1"><g transform="translate(155.996881, 198.969097)"><g><path d="M 14.359375 -13.734375 C 9.085938 -3.046875 6.304688 2.585938 6.015625 3.171875 C 5.671875 3.835938 5.316406 4.523438 4.953125 5.234375 C 4.859375 5.410156 4.789062 5.601562 4.75 5.8125 C 4.039062 7.175781 3.359375 8.554688 2.703125 9.953125 C -1.441406 18.335938 -5.394531 26.753906 -9.15625 35.203125 C -9.15625 35.316406 -9.191406 35.421875 -9.265625 35.515625 C -9.304688 35.722656 -9.394531 35.925781 -9.53125 36.125 C -10.03125 36.832031 -10.660156 37.128906 -11.421875 37.015625 C -11.617188 37.054688 -11.820312 37.054688 -12.03125 37.015625 C -12.4375 36.921875 -12.75 36.75 -12.96875 36.5 C -13.1875 36.25 -13.226562 35.894531 -13.09375 35.4375 C -12.539062 33.78125 -11.890625 32.128906 -11.140625 30.484375 C -8.523438 24.929688 -5.914062 19.335938 -3.3125 13.703125 C -1.757812 10.359375 -0.195312 7 1.375 3.625 C 2.050781 2.28125 4.160156 -1.984375 7.703125 -9.171875 C 11.242188 -16.367188 13.3125 -20.59375 13.90625 -21.84375 C 18.582031 -31.363281 23.492188 -40.796875 28.640625 -50.140625 C 31.941406 -56.242188 35.203125 -62.382812 38.421875 -68.5625 C 38.785156 -69.3125 39.238281 -69.984375 39.78125 -70.578125 C 40.238281 -71.035156 40.785156 -71.3125 41.421875 -71.40625 C 41.628906 -71.519531 41.835938 -71.539062 42.046875 -71.46875 C 42.546875 -71.539062 42.929688 -71.410156 43.203125 -71.078125 C 43.472656 -70.742188 43.53125 -70.347656 43.375 -69.890625 C 43.238281 -69.554688 43.09375 -69.207031 42.9375 -68.84375 C 42.039062 -66.695312 41.035156 -64.566406 39.921875 -62.453125 C 36.203125 -55.296875 32.441406 -48.148438 28.640625 -41.015625 C 26.679688 -37.367188 24.753906 -33.710938 22.859375 -30.046875 C 21.910156 -28.285156 20.976562 -26.507812 20.0625 -24.71875 C 19.71875 -24.050781 19.375 -23.378906 19.03125 -22.703125 C 18.96875 -22.585938 18.914062 -22.484375 18.875 -22.390625 C 18.726562 -22.140625 18.613281 -21.890625 18.53125 -21.640625 C 18.457031 -21.390625 18.46875 -21.160156 18.5625 -20.953125 C 18.71875 -20.742188 18.921875 -20.617188 19.171875 -20.578125 C 19.421875 -20.617188 19.671875 -20.664062 19.921875 -20.71875 C 20.015625 -20.78125 20.117188 -20.835938 20.234375 -20.890625 C 22.992188 -21.679688 25.75 -22.476562 28.5 -23.28125 C 36.226562 -25.53125 43.914062 -27.910156 51.5625 -30.421875 C 59.207031 -32.929688 66.789062 -35.710938 74.3125 -38.765625 C 79 -40.671875 83.640625 -42.6875 88.234375 -44.8125 C 92.828125 -46.945312 97.332031 -49.316406 101.75 -51.921875 C 105.445312 -54.085938 108.921875 -56.628906 112.171875 -59.546875 C 113.796875 -60.972656 115.210938 -62.597656 116.421875 -64.421875 C 118.859375 -68.066406 119.003906 -71.476562 116.859375 -74.65625 C 115.554688 -76.539062 113.90625 -78.085938 111.90625 -79.296875 C 108.894531 -81.253906 105.632812 -82.78125 102.125 -83.875 C 93.539062 -86.5 84.609375 -88.164062 75.328125 -88.875 C 69.878906 -89.257812 64.367188 -89.472656 58.796875 -89.515625 C 55.785156 -89.515625 52.753906 -89.445312 49.703125 -89.3125 C 45.140625 -89.101562 40.5625 -88.695312 35.96875 -88.09375 C 31.382812 -87.488281 26.8125 -86.457031 22.25 -85 C 19.351562 -84.070312 16.53125 -82.878906 13.78125 -81.421875 C 11.65625 -80.410156 9.773438 -79.078125 8.140625 -77.421875 C 7.679688 -76.921875 7.144531 -76.546875 6.53125 -76.296875 C 6.226562 -76.148438 5.953125 -76.101562 5.703125 -76.15625 C 5.203125 -76.101562 4.78125 -76.25 4.4375 -76.59375 C 3.988281 -77.09375 3.988281 -77.640625 4.4375 -78.234375 C 5.144531 -79.191406 5.957031 -80.023438 6.875 -80.734375 C 7.800781 -81.441406 8.769531 -82.066406 9.78125 -82.609375 C 14.382812 -85.273438 19.164062 -87.234375 24.125 -88.484375 C 30.1875 -90.035156 36.257812 -90.984375 42.34375 -91.328125 C 48.25 -91.785156 54.164062 -92.035156 60.09375 -92.078125 L 60.21875 -92.078125 C 61.34375 -92.078125 62.472656 -92.078125 63.609375 -92.078125 C 69.285156 -91.984375 74.898438 -91.695312 80.453125 -91.21875 C 86.015625 -90.75 91.507812 -89.910156 96.9375 -88.703125 C 99.738281 -88.054688 102.492188 -87.296875 105.203125 -86.421875 C 107.910156 -85.546875 110.519531 -84.445312 113.03125 -83.125 C 115.789062 -81.78125 118.195312 -80.023438 120.25 -77.859375 C 124.757812 -72.910156 124.53125 -67.429688 119.5625 -61.421875 C 117.257812 -58.753906 114.671875 -56.421875 111.796875 -54.421875 C 108.203125 -51.816406 104.5 -49.472656 100.6875 -47.390625 C 96.882812 -45.304688 93 -43.382812 89.03125 -41.625 C 80.851562 -37.863281 72.578125 -34.488281 64.203125 -31.5 C 55.828125 -28.519531 47.414062 -25.78125 38.96875 -23.28125 C 32.332031 -21.269531 25.710938 -19.34375 19.109375 -17.5 C 18.054688 -17.25 17.125 -16.832031 16.3125 -16.25 C 15.507812 -15.664062 14.859375 -14.828125 14.359375 -13.734375 Z M 129.59375 14.640625 C 131.769531 16.523438 118.773438 13.265625 90.609375 4.859375 C 71.304688 -1.023438 51.835938 -6.578125 32.203125 -11.796875 C 26.734375 -13.179688 21.238281 -14.523438 15.71875 -15.828125 C 13.507812 -16.398438 11.300781 -16.9375 9.09375 -17.4375 C 8.34375 -17.613281 7.59375 -17.757812 6.84375 -17.875 C 6.695312 -17.875 6.546875 -17.894531 6.390625 -17.9375 C 5.890625 -17.9375 5.960938 -18.601562 6.609375 -19.9375 C 7.265625 -21.269531 8.070312 -21.6875 9.03125 -21.1875 C 10.28125 -20.53125 13.234375 -19.550781 17.890625 -18.25 C 22.554688 -16.945312 28.578125 -15.296875 35.953125 -13.296875 C 49.921875 -9.628906 66.613281 -4.957031 86.03125 0.71875 C 112.894531 8.125 127.414062 12.765625 129.59375 14.640625 Z M 129.59375 14.640625 "/></g></g></g><g fill="#e5ac5f" fill-opacity="1"><g transform="translate(146.538606, 270.386334)"><g><path d="M 6.625 -29.734375 C 7.039062 -29.734375 7.875 -29.769531 9.125 -29.84375 C 10.863281 -29.976562 12.429688 -30.046875 13.828125 -30.046875 C 18.710938 -30.046875 22.363281 -28.804688 24.78125 -26.328125 C 27.195312 -23.859375 28.40625 -20.296875 28.40625 -15.640625 C 28.40625 -12.328125 27.796875 -9.472656 26.578125 -7.078125 C 25.367188 -4.679688 23.644531 -2.847656 21.40625 -1.578125 C 19.175781 -0.316406 16.550781 0.3125 13.53125 0.3125 C 12.59375 0.3125 11.203125 0.253906 9.359375 0.140625 C 8.222656 0.046875 7.332031 0 6.6875 0 L 3.671875 0 L 3.671875 -29.734375 Z M 13.921875 -4.453125 C 16.398438 -4.484375 18.335938 -5.351562 19.734375 -7.0625 C 21.140625 -8.769531 21.84375 -11.410156 21.84375 -14.984375 C 21.84375 -17.535156 21.53125 -19.566406 20.90625 -21.078125 C 20.289062 -22.597656 19.359375 -23.691406 18.109375 -24.359375 C 16.859375 -25.023438 15.238281 -25.359375 13.25 -25.359375 C 12.550781 -25.359375 11.707031 -25.289062 10.71875 -25.15625 L 9.9375 -25.078125 L 9.9375 -4.8125 C 10.820312 -4.570312 12.148438 -4.453125 13.921875 -4.453125 Z M 13.921875 -4.453125 "/></g></g></g><g fill="#e5ac5f" fill-opacity="1"><g transform="translate(176.887202, 270.386334)"><g><path d="M 21.796875 -29.734375 L 21.796875 -24.96875 L 9.890625 -24.96875 L 9.890625 -17.578125 L 19.03125 -17.578125 L 19.03125 -12.875 L 9.890625 -12.875 L 9.890625 -4.90625 L 23.0625 -4.90625 L 23.0625 0 L 3.671875 0 L 3.671875 -29.734375 Z M 21.796875 -29.734375 "/></g></g></g><g fill="#e5ac5f" fill-opacity="1"><g transform="translate(201.376996, 270.386334)"><g><path d="M 6.5625 -29.734375 L 12.109375 -13.5 L 13.6875 -7.828125 L 15.296875 -13.5 L 20.546875 -29.734375 L 27.171875 -29.734375 L 16.234375 0.125 L 10.953125 0.125 L -0.09375 -29.734375 Z M 6.5625 -29.734375 "/></g></g></g></svg>